<svg width="22" height="19" viewBox="0 0 22 19" fill="none" xmlns="http://www.w3.org/2000/svg">
<g id="elements">
<path id="Rectangle 2044" d="M1 9C1 10.1046 1.89543 11 3 11C4.65685 11 6 9.65685 6 8V4C6 2.34315 4.65685 1 3 1C1.89543 1 1 1.89543 1 3V9Z" stroke="#141B34" stroke-width="1.5" stroke-linecap="round" stroke-linejoin="round"/>
<path id="Vector" d="M14.4787 13.6937L14.2124 12.8337C13.9942 12.1289 13.8851 11.7765 13.969 11.4982C14.0369 11.2731 14.1859 11.079 14.389 10.9513C14.64 10.7935 15.0197 10.7935 15.7791 10.7935H16.1831C18.7532 10.7935 20.0382 10.7935 20.6452 10.0327C20.7145 9.94575 20.7762 9.85331 20.8296 9.75633C21.2965 8.90785 20.7657 7.76487 19.704 5.4789C18.7297 3.38111 18.2425 2.33222 17.338 1.71485C17.2505 1.65508 17.1605 1.5987 17.0683 1.54586C16.116 1 14.9362 1 12.5764 1H12.0646C9.20572 1 7.77628 1 6.88814 1.86053C6 2.72106 6 4.10607 6 6.87607V7.84966C6 9.30536 6 10.0332 6.25834 10.6994C6.51668 11.3656 7.01135 11.9134 8.00069 13.0089L12.0921 17.5394C12.1947 17.6531 12.246 17.7099 12.2913 17.7493C12.7135 18.1167 13.3652 18.0754 13.7344 17.6577C13.774 17.6129 13.8172 17.5501 13.9036 17.4245C14.0388 17.228 14.1064 17.1297 14.1654 17.0323C14.6928 16.1609 14.8524 15.1256 14.6108 14.1429C14.5838 14.0331 14.5488 13.9199 14.4787 13.6937Z" stroke="#141B34" stroke-width="1.5" stroke-linecap="round" stroke-linejoin="round"/>
</g>
</svg>
