<svg width="22" height="19" viewBox="0 0 22 19" fill="none" xmlns="http://www.w3.org/2000/svg">
<path d="M1 10C1 8.89543 1.89543 8 3 8C4.65685 8 6 9.34315 6 11V15C6 16.6569 4.65685 18 3 18C1.89543 18 1 17.1046 1 16V10Z" stroke="#141B34" stroke-width="1.5" stroke-linecap="round" stroke-linejoin="round"/>
<path d="M14.4787 5.30626L14.2124 6.16634C13.9942 6.87111 13.8851 7.22349 13.969 7.5018C14.0369 7.72695 14.1859 7.92102 14.389 8.04871C14.64 8.20655 15.0197 8.20655 15.7791 8.20655H16.1831C18.7532 8.20655 20.0382 8.20655 20.6452 8.9673C20.7145 9.05425 20.7762 9.14669 20.8296 9.24367C21.2965 10.0921 20.7657 11.2351 19.704 13.5211C18.7297 15.6189 18.2425 16.6678 17.338 17.2852C17.2505 17.3449 17.1605 17.4013 17.0683 17.4541C16.116 18 14.9362 18 12.5764 18H12.0646C9.20572 18 7.77628 18 6.88814 17.1395C6 16.2789 6 14.8939 6 12.1239V11.1503C6 9.69464 6 8.96678 6.25834 8.3006C6.51668 7.63441 7.01135 7.08664 8.00069 5.99112L12.0921 1.46056C12.1947 1.34694 12.246 1.29012 12.2913 1.25075C12.7135 0.88328 13.3652 0.924643 13.7344 1.34235C13.774 1.3871 13.8172 1.44991 13.9036 1.57554C14.0388 1.77205 14.1064 1.87031 14.1654 1.96765C14.6928 2.83913 14.8524 3.87436 14.6108 4.85715C14.5838 4.96692 14.5488 5.0801 14.4787 5.30626Z" stroke="#141B34" stroke-width="1.5" stroke-linecap="round" stroke-linejoin="round"/>
</svg>
