<svg width="197" height="40" viewBox="0 0 197 40" fill="none" xmlns="http://www.w3.org/2000/svg">
<rect x="0.5" y="0.5" width="39" height="39" rx="19.5" fill="white"/>
<rect x="0.5" y="0.5" width="39" height="39" rx="19.5" stroke="#E4E7EC"/>
<path d="M20.8333 14.1667C20.8333 13.7064 20.4602 13.3333 20 13.3333C19.5398 13.3333 19.1667 13.7064 19.1667 14.1667V23.3333C19.1667 23.7936 19.5398 24.1667 20 24.1667C20.4602 24.1667 20.8333 23.7936 20.8333 23.3333V14.1667Z" fill="black"/>
<path fill-rule="evenodd" clip-rule="evenodd" d="M20 10.8333C18.3215 10.8333 16.9608 12.194 16.9608 13.8726V19.9307C15.7649 20.8743 15 22.3586 15 24.0188C15 26.8343 17.2114 29.1667 20 29.1667C22.7886 29.1667 25 26.8343 25 24.0188C25 22.3586 24.2351 20.8743 23.0392 19.9307V13.8726C23.0392 12.194 21.6785 10.8333 20 10.8333ZM16.6667 24.0188C16.6667 22.8501 17.2165 21.8241 18.0509 21.1945C18.3821 20.9447 18.6275 20.5381 18.6275 20.0586V13.8726C18.6275 13.1145 19.242 12.5 20 12.5C20.758 12.5 21.3725 13.1145 21.3725 13.8726V20.0586C21.3725 20.5381 21.6179 20.9447 21.9491 21.1945C22.7835 21.8241 23.3333 22.8501 23.3333 24.0188C23.3333 25.969 21.8138 27.5 20 27.5C18.1862 27.5 16.6667 25.969 16.6667 24.0188Z" fill="black"/>
<path d="M40 20H78.5" stroke="black"/>
<rect x="79" y="1.5" width="117.5" height="37" rx="18.5" stroke="#D2D2D2"/>
<path d="M102.383 14.5234V15.8906H98.5156V26H96.9375V15.8906H93.0703V14.5234H102.383ZM105.328 17.4453C105.922 17.4453 106.497 17.5859 107.055 17.8672C107.612 18.1432 108.036 18.5026 108.328 18.9453C108.609 19.3672 108.797 19.8594 108.891 20.4219C108.974 20.8073 109.016 21.4219 109.016 22.2656H102.883C102.909 23.1146 103.109 23.7969 103.484 24.3125C103.859 24.8229 104.44 25.0781 105.227 25.0781C105.961 25.0781 106.547 24.8359 106.984 24.3516C107.234 24.0703 107.411 23.7448 107.516 23.375H108.898C108.862 23.6823 108.74 24.026 108.531 24.4062C108.328 24.7812 108.099 25.0885 107.844 25.3281C107.417 25.7448 106.888 26.026 106.258 26.1719C105.919 26.2552 105.536 26.2969 105.109 26.2969C104.068 26.2969 103.185 25.9193 102.461 25.1641C101.737 24.4036 101.375 23.3411 101.375 21.9766C101.375 20.6328 101.74 19.5417 102.469 18.7031C103.198 17.8646 104.151 17.4453 105.328 17.4453ZM107.57 21.1484C107.513 20.5391 107.38 20.0521 107.172 19.6875C106.786 19.0104 106.143 18.6719 105.242 18.6719C104.596 18.6719 104.055 18.9062 103.617 19.375C103.18 19.8385 102.948 20.4297 102.922 21.1484H107.57ZM110.75 17.6328H112.141V18.8203C112.474 18.4089 112.776 18.1094 113.047 17.9219C113.51 17.6042 114.036 17.4453 114.625 17.4453C115.292 17.4453 115.828 17.6094 116.234 17.9375C116.464 18.125 116.672 18.401 116.859 18.7656C117.172 18.3177 117.539 17.987 117.961 17.7734C118.383 17.5547 118.857 17.4453 119.383 17.4453C120.508 17.4453 121.273 17.8516 121.68 18.6641C121.898 19.1016 122.008 19.6901 122.008 20.4297V26H120.547V20.1875C120.547 19.6302 120.406 19.2474 120.125 19.0391C119.849 18.8307 119.51 18.7266 119.109 18.7266C118.557 18.7266 118.081 18.9115 117.68 19.2812C117.284 19.651 117.086 20.2682 117.086 21.1328V26H115.656V20.5391C115.656 19.9714 115.589 19.5573 115.453 19.2969C115.24 18.9062 114.841 18.7109 114.258 18.7109C113.727 18.7109 113.242 18.9167 112.805 19.3281C112.372 19.7396 112.156 20.4844 112.156 21.5625V26H110.75V17.6328ZM127.609 25.0547C128.266 25.0547 128.81 24.7812 129.242 24.2344C129.68 23.6823 129.898 22.8594 129.898 21.7656C129.898 21.099 129.802 20.526 129.609 20.0469C129.245 19.125 128.578 18.6641 127.609 18.6641C126.635 18.6641 125.969 19.151 125.609 20.125C125.417 20.6458 125.32 21.3073 125.32 22.1094C125.32 22.7552 125.417 23.3047 125.609 23.7578C125.974 24.6224 126.641 25.0547 127.609 25.0547ZM123.969 17.6719H125.336V18.7812C125.617 18.401 125.924 18.1068 126.258 17.8984C126.732 17.5859 127.289 17.4297 127.93 17.4297C128.878 17.4297 129.682 17.7943 130.344 18.5234C131.005 19.2474 131.336 20.2839 131.336 21.6328C131.336 23.4557 130.859 24.7578 129.906 25.5391C129.302 26.0339 128.599 26.2812 127.797 26.2812C127.167 26.2812 126.638 26.1432 126.211 25.8672C125.961 25.7109 125.682 25.4427 125.375 25.0625V29.3359H123.969V17.6719ZM136.469 17.4453C137.062 17.4453 137.638 17.5859 138.195 17.8672C138.753 18.1432 139.177 18.5026 139.469 18.9453C139.75 19.3672 139.938 19.8594 140.031 20.4219C140.115 20.8073 140.156 21.4219 140.156 22.2656H134.023C134.049 23.1146 134.25 23.7969 134.625 24.3125C135 24.8229 135.581 25.0781 136.367 25.0781C137.102 25.0781 137.688 24.8359 138.125 24.3516C138.375 24.0703 138.552 23.7448 138.656 23.375H140.039C140.003 23.6823 139.88 24.026 139.672 24.4062C139.469 24.7812 139.24 25.0885 138.984 25.3281C138.557 25.7448 138.029 26.026 137.398 26.1719C137.06 26.2552 136.677 26.2969 136.25 26.2969C135.208 26.2969 134.326 25.9193 133.602 25.1641C132.878 24.4036 132.516 23.3411 132.516 21.9766C132.516 20.6328 132.88 19.5417 133.609 18.7031C134.339 17.8646 135.292 17.4453 136.469 17.4453ZM138.711 21.1484C138.654 20.5391 138.521 20.0521 138.312 19.6875C137.927 19.0104 137.284 18.6719 136.383 18.6719C135.737 18.6719 135.195 18.9062 134.758 19.375C134.32 19.8385 134.089 20.4297 134.062 21.1484H138.711ZM141.93 17.6328H143.266V19.0781C143.375 18.7969 143.643 18.4557 144.07 18.0547C144.497 17.6484 144.99 17.4453 145.547 17.4453C145.573 17.4453 145.617 17.4479 145.68 17.4531C145.742 17.4583 145.849 17.4688 146 17.4844V18.9688C145.917 18.9531 145.839 18.9427 145.766 18.9375C145.698 18.9323 145.622 18.9297 145.539 18.9297C144.831 18.9297 144.286 19.1589 143.906 19.6172C143.526 20.0703 143.336 20.5938 143.336 21.1875V26H141.93V17.6328ZM148.297 23.7734C148.297 24.1797 148.445 24.5 148.742 24.7344C149.039 24.9688 149.391 25.0859 149.797 25.0859C150.292 25.0859 150.771 24.9714 151.234 24.7422C152.016 24.362 152.406 23.7396 152.406 22.875V21.7422C152.234 21.8516 152.013 21.9427 151.742 22.0156C151.471 22.0885 151.206 22.1406 150.945 22.1719L150.094 22.2812C149.583 22.349 149.201 22.4557 148.945 22.6016C148.513 22.8464 148.297 23.237 148.297 23.7734ZM151.703 20.9297C152.026 20.888 152.242 20.7526 152.352 20.5234C152.414 20.3984 152.445 20.2188 152.445 19.9844C152.445 19.5052 152.273 19.1589 151.93 18.9453C151.591 18.7266 151.104 18.6172 150.469 18.6172C149.734 18.6172 149.214 18.8151 148.906 19.2109C148.734 19.4297 148.622 19.7552 148.57 20.1875H147.258C147.284 19.1562 147.617 18.4401 148.258 18.0391C148.904 17.6328 149.651 17.4297 150.5 17.4297C151.484 17.4297 152.284 17.6172 152.898 17.9922C153.508 18.3672 153.812 18.9505 153.812 19.7422V24.5625C153.812 24.7083 153.841 24.8255 153.898 24.9141C153.961 25.0026 154.089 25.0469 154.281 25.0469C154.344 25.0469 154.414 25.0443 154.492 25.0391C154.57 25.0286 154.654 25.0156 154.742 25V26.0391C154.523 26.1016 154.357 26.1406 154.242 26.1562C154.128 26.1719 153.971 26.1797 153.773 26.1797C153.289 26.1797 152.938 26.0078 152.719 25.6641C152.604 25.4818 152.523 25.224 152.477 24.8906C152.19 25.2656 151.779 25.5911 151.242 25.8672C150.706 26.1432 150.115 26.2812 149.469 26.2812C148.693 26.2812 148.057 26.0469 147.562 25.5781C147.073 25.1042 146.828 24.513 146.828 23.8047C146.828 23.0286 147.07 22.4271 147.555 22C148.039 21.5729 148.674 21.3099 149.461 21.2109L151.703 20.9297ZM156.406 15.2969H157.828V17.6328H159.164V18.7812H157.828V24.2422C157.828 24.5339 157.927 24.7292 158.125 24.8281C158.234 24.8854 158.417 24.9141 158.672 24.9141C158.74 24.9141 158.812 24.9141 158.891 24.9141C158.969 24.9089 159.06 24.901 159.164 24.8906V26C159.003 26.0469 158.833 26.0807 158.656 26.1016C158.484 26.1224 158.297 26.1328 158.094 26.1328C157.438 26.1328 156.992 25.9661 156.758 25.6328C156.523 25.2943 156.406 24.8568 156.406 24.3203V18.7812H155.273V17.6328H156.406V15.2969ZM161.984 17.6328V23.1875C161.984 23.6146 162.052 23.9635 162.188 24.2344C162.438 24.7344 162.904 24.9844 163.586 24.9844C164.565 24.9844 165.232 24.5469 165.586 23.6719C165.779 23.2031 165.875 22.5599 165.875 21.7422V17.6328H167.281V26H165.953L165.969 24.7656C165.786 25.0833 165.56 25.3516 165.289 25.5703C164.753 26.0078 164.102 26.2266 163.336 26.2266C162.143 26.2266 161.331 25.8281 160.898 25.0312C160.664 24.6042 160.547 24.0339 160.547 23.3203V17.6328H161.984ZM169.523 17.6328H170.859V19.0781C170.969 18.7969 171.237 18.4557 171.664 18.0547C172.091 17.6484 172.583 17.4453 173.141 17.4453C173.167 17.4453 173.211 17.4479 173.273 17.4531C173.336 17.4583 173.443 17.4688 173.594 17.4844V18.9688C173.51 18.9531 173.432 18.9427 173.359 18.9375C173.292 18.9323 173.216 18.9297 173.133 18.9297C172.424 18.9297 171.88 19.1589 171.5 19.6172C171.12 20.0703 170.93 20.5938 170.93 21.1875V26H169.523V17.6328ZM178.297 17.4453C178.891 17.4453 179.466 17.5859 180.023 17.8672C180.581 18.1432 181.005 18.5026 181.297 18.9453C181.578 19.3672 181.766 19.8594 181.859 20.4219C181.943 20.8073 181.984 21.4219 181.984 22.2656H175.852C175.878 23.1146 176.078 23.7969 176.453 24.3125C176.828 24.8229 177.409 25.0781 178.195 25.0781C178.93 25.0781 179.516 24.8359 179.953 24.3516C180.203 24.0703 180.38 23.7448 180.484 23.375H181.867C181.831 23.6823 181.708 24.026 181.5 24.4062C181.297 24.7812 181.068 25.0885 180.812 25.3281C180.385 25.7448 179.857 26.026 179.227 26.1719C178.888 26.2552 178.505 26.2969 178.078 26.2969C177.036 26.2969 176.154 25.9193 175.43 25.1641C174.706 24.4036 174.344 23.3411 174.344 21.9766C174.344 20.6328 174.708 19.5417 175.438 18.7031C176.167 17.8646 177.12 17.4453 178.297 17.4453ZM180.539 21.1484C180.482 20.5391 180.349 20.0521 180.141 19.6875C179.755 19.0104 179.112 18.6719 178.211 18.6719C177.565 18.6719 177.023 18.9062 176.586 19.375C176.148 19.8385 175.917 20.4297 175.891 21.1484H180.539Z" fill="black"/>
</svg>
