<svg width="251" height="250" viewBox="0 0 251 250" fill="none" xmlns="http://www.w3.org/2000/svg">
<path d="M30.865 33.7499L37.425 33.6099L40.755 33.5549C41.87 33.5549 42.985 33.5549 44.105 33.5549H44.325V33.7799L44.355 39.3749V39.6249H44.105L37.5 39.5649C35.29 39.5649 33.085 39.5099 30.88 39.4799H30.74V39.3449C30.74 38.3949 30.785 37.4549 30.805 36.5199L30.865 33.7499ZM30.865 33.7499L30.935 36.5799C30.935 37.5099 30.99 38.4299 31 39.3449L30.865 39.2099C33.07 39.2099 35.275 39.1299 37.485 39.1299L44.105 39.0949L43.855 39.3449L43.88 33.7499L44.105 33.9749C43.01 33.9749 41.925 33.9749 40.83 33.9449L37.54 33.8899L30.865 33.7499Z" fill="#EBEBEB"/>
<path d="M38.2501 26.695L44.8101 26.555L48.1401 26.5C49.2551 26.5 50.3751 26.5 51.4901 26.5H51.7101V26.725L51.7401 32.32V32.57H51.5001L44.8701 32.5C42.6601 32.5 40.4551 32.445 38.2501 32.415H38.1101V32.28C38.1101 31.33 38.1551 30.39 38.1751 29.455L38.2501 26.695ZM38.2501 26.695L38.3201 29.525C38.3201 30.455 38.3751 31.375 38.3851 32.29L38.2501 32.155C40.4551 32.155 42.6601 32.075 44.8701 32.075L51.5001 32.04L51.2501 32.29V26.695L51.4751 26.92C50.3851 26.92 49.2951 26.92 48.2001 26.89L44.9101 26.835L38.2501 26.695Z" fill="#EBEBEB"/>
<path d="M51.0902 98.58L57.6502 98.44L60.9802 98.385C62.0952 98.36 63.2152 98.385 64.3302 98.355H64.5502V98.58L64.5802 104.175V104.425H64.3302L57.7102 104.39C55.5002 104.39 53.2952 104.335 51.0902 104.31H50.9502V104.175C50.9502 103.225 50.9952 102.28 51.0152 101.345L51.0902 98.58ZM51.0902 98.58L51.1602 101.405C51.1602 102.335 51.2152 103.26 51.2252 104.175L51.0902 104.035C53.2952 104.035 55.5002 103.955 57.7102 103.955L64.3302 103.925L64.0802 104.175V98.58L64.3052 98.8C63.2102 98.8 62.1252 98.8 61.0302 98.8L57.7402 98.745L51.0902 98.58Z" fill="#EBEBEB"/>
<path d="M58.5001 91.525L65.0601 91.385L68.3901 91.33C69.5051 91.33 70.6251 91.33 71.7401 91.3H71.9601V91.525L71.9901 97.12V97.37H71.7401L65.1201 97.335C62.9101 97.335 60.7051 97.28 58.5001 97.255H58.3601V97.12C58.3601 96.17 58.4051 95.225 58.4301 94.29L58.5001 91.525ZM58.5001 91.525L58.5701 94.35C58.5701 95.28 58.6251 96.205 58.6351 97.12L58.5001 97C60.7051 96.975 62.9101 96.925 65.1201 96.92L71.7401 96.89L71.4901 97.14V91.545L71.7151 91.765C70.6251 91.765 69.5351 91.765 68.4401 91.74L65.1501 91.685L58.5001 91.525Z" fill="#EBEBEB"/>
<path d="M23.5001 26.695L30.0651 26.555L33.3701 26.5C34.4801 26.5 35.6001 26.5 36.7151 26.5H36.9401V26.725L36.9651 32.32V32.57H36.7101L30.0951 32.5C27.8901 32.5 25.6851 32.445 23.4751 32.415H23.3401V32.28C23.3401 31.33 23.3851 30.39 23.4051 29.455L23.5001 26.695ZM23.5001 26.695L23.5751 29.525C23.5751 30.455 23.6301 31.375 23.6401 32.29L23.5001 32.155C25.7101 32.155 27.9151 32.075 30.1201 32.075L36.7401 32.04L36.4901 32.29L36.5001 26.695L36.7201 26.92C35.6301 26.92 34.5451 26.92 33.4501 26.89L30.1601 26.835L23.5001 26.695Z" fill="#EBEBEB"/>
<path d="M220.135 148.205L213.575 148.345L210.245 148.405C209.13 148.405 208.015 148.405 206.895 148.43H206.675V148.205L206.645 142.615V142.36H206.895L213.515 142.39C215.725 142.39 217.93 142.445 220.135 142.47H220.275V142.605C220.275 143.55 220.23 144.495 220.21 145.43L220.135 148.205ZM220.135 148.205L220.065 145.38C220.065 144.45 220.01 143.53 220 142.615L220.135 142.75C217.93 142.775 215.725 142.83 213.515 142.83L206.895 142.86L207.145 142.615L207.12 148.205L206.895 147.985C207.99 147.985 209.075 147.985 210.17 147.985L213.46 148.045L220.135 148.205Z" fill="#EBEBEB"/>
<path d="M227.525 155.26L220.96 155.4L217.63 155.46C216.515 155.46 215.4 155.46 214.285 155.485H214.06V155.26L214.035 149.665V149.415H214.29L220.91 149.445C223.115 149.445 225.32 149.5 227.53 149.525H227.665V149.655C227.665 150.605 227.62 151.55 227.6 152.485L227.525 155.26ZM227.525 155.26L227.45 152.435C227.45 151.505 227.395 150.585 227.385 149.665L227.525 149.805C225.315 149.83 223.11 149.885 220.905 149.885L214.285 149.915L214.535 149.665L214.5 155.26L214.28 155.04C215.37 155.04 216.455 155.04 217.55 155.065L220.84 155.125L227.525 155.26Z" fill="#EBEBEB"/>
<path d="M44.2151 155.26L37.6551 155.4L34.3251 155.46C33.2101 155.46 32.0901 155.46 30.9751 155.485H30.7551V155.26L30.7251 149.665V149.415H31.0001L37.6201 149.445C39.8301 149.445 42.0351 149.5 44.2401 149.525H44.3801V149.655C44.3801 150.605 44.3351 151.55 44.3101 152.485L44.2151 155.26ZM44.2151 155.26L44.1451 152.435C44.1451 151.505 44.0901 150.585 44.0801 149.665L44.2151 149.805C42.0101 149.83 39.8051 149.885 37.5951 149.885L31.0001 149.915L31.2501 149.665L31.2251 155.26L31.0001 155.04C32.0901 155.04 33.1801 155.04 34.2751 155.065L37.5651 155.125L44.2151 155.26Z" fill="#EBEBEB"/>
<path d="M206.84 26.695L213.405 26.555L216.735 26.5C217.845 26.5 218.965 26.5 220.08 26.5H220.305V26.725L220.33 32.32V32.57H220.08L213.46 32.5C211.255 32.5 209.045 32.445 206.84 32.415H206.705V32.28C206.705 31.33 206.745 30.39 206.77 29.455L206.84 26.695ZM206.84 26.695L206.91 29.525C206.935 30.455 206.97 31.375 206.975 32.29L206.84 32.155C209.045 32.155 211.255 32.075 213.46 32.075L220.08 32.04L219.83 32.29L219.86 26.695L220.08 26.92C218.99 26.92 217.9 26.92 216.81 26.89L213.5 26.835L206.84 26.695Z" fill="#EBEBEB"/>
<path d="M225.835 112.89H159.265V19.925H225.835V112.89ZM161.24 110.915H223.86V21.9H161.24V110.915Z" fill="#EBEBEB"/>
<path d="M193.535 22.415H191.56V111.9H193.535V22.415Z" fill="#EBEBEB"/>
<path d="M227.63 23.9199H157.475V26.6699H227.63V23.9199Z" fill="#EBEBEB"/>
<path d="M227.63 27.0151H157.475V29.7651H227.63V27.0151Z" fill="#EBEBEB"/>
<path d="M227.63 30.105H157.475V32.855H227.63V30.105Z" fill="#EBEBEB"/>
<path d="M227.63 33.2H157.475V35.95H227.63V33.2Z" fill="#EBEBEB"/>
<path d="M227.63 36.2949H157.475V39.0449H227.63V36.2949Z" fill="#EBEBEB"/>
<path d="M227.63 39.3901H157.475V42.1401H227.63V39.3901Z" fill="#EBEBEB"/>
<path d="M227.63 42.4851H157.475V45.2351H227.63V42.4851Z" fill="#EBEBEB"/>
<path d="M227.63 45.5801H157.475V48.3301H227.63V45.5801Z" fill="#EBEBEB"/>
<path d="M227.63 48.675H157.475V51.425H227.63V48.675Z" fill="#EBEBEB"/>
<path d="M221.76 23.3601H221.265V76.8851H221.76V23.3601Z" fill="#A6A6A6"/>
<path d="M222.39 79.185H220.635L221.075 76.665H221.95L222.39 79.185Z" fill="#A6A6A6"/>
<path d="M223.54 23.3601H223.045V90.3851H223.54V23.3601Z" fill="#A6A6A6"/>
<path d="M224.17 92.24H222.415L222.855 89.72H223.73L224.17 92.24Z" fill="#A6A6A6"/>
<path d="M230.695 19.54H154.41V25.295H230.695V19.54Z" fill="#DBDBDB"/>
<path d="M77.5201 52.54H21.6101V55.86H77.5201V52.54Z" fill="#EBEBEB"/>
<path d="M29.1752 55.8601H25.8552V66.8401H29.1752V55.8601Z" fill="#EBEBEB"/>
<path d="M29.1752 55.8601H25.8552V59.2551H29.1752V55.8601Z" fill="#DBDBDB"/>
<path d="M73.2751 55.8601H69.9551V66.8401H73.2751V55.8601Z" fill="#EBEBEB"/>
<path d="M73.2751 55.8601H69.9551V59.2551H73.2751V55.8601Z" fill="#DBDBDB"/>
<path d="M34.2151 52.5401V31.3801H28.8851V52.5401H34.2151Z" fill="#C7C7C7"/>
<path d="M34.2151 32.5801V30.2551H28.8851V32.5801H34.2151Z" fill="#DBDBDB"/>
<path d="M34.2151 36.4199V35.5549H28.8851V36.4199H34.2151Z" fill="#DBDBDB"/>
<path d="M34.8801 49.7649V47.4399H28.8901V49.7649H34.8801Z" fill="#DBDBDB"/>
<path d="M37.9351 52.5401V27.8601H34.2101V52.5401H37.9351Z" fill="#DBDBDB"/>
<path d="M37.175 39.6749V30.1799H34.9401V39.6749H37.175Z" fill="#EBEBEB"/>
<path d="M64.4212 49.8984L46.8696 32.5479L44.2509 35.197L61.8025 52.5475L64.4212 49.8984Z" fill="#C7C7C7"/>
<path d="M59.7948 46.3468L53.0422 39.6716L51.471 41.2611L58.2235 47.9363L59.7948 46.3468Z" fill="#DBDBDB"/>
<path d="M44.26 52.545V33.8H37.935V52.545H44.26Z" fill="#A6A6A6"/>
<path d="M44.26 50.5551V48.8101H37.935V50.5551H44.26Z" fill="#C7C7C7"/>
<path d="M44.26 47.6651V46.9851H37.935V47.6651H44.26Z" fill="#C7C7C7"/>
<path d="M28.885 52.5499V34.9299H24.515V52.5499H28.885Z" fill="#A6A6A6"/>
<path d="M28.885 50.6752V49.0352H24.515V50.6752H28.885Z" fill="#C7C7C7"/>
<path d="M28.885 40.1949V38.5549H24.515V40.1949H28.885Z" fill="#C7C7C7"/>
<path d="M28.885 41.96V41.325H24.515V41.96H28.885Z" fill="#C7C7C7"/>
<path d="M226.16 223.295C226.16 230.39 181.09 236.145 125.5 236.145C69.9101 236.145 24.8401 230.39 24.8401 223.295C24.8401 216.2 69.9101 210.445 125.5 210.445C181.09 210.445 226.16 216.2 226.16 223.295Z" fill="#EBEBEB"/>
<path d="M200.57 163.32C200.57 163.32 192.275 161.44 187.73 157.25C183.185 153.06 180.64 145.555 180.64 145.555C183.793 146.16 186.902 146.977 189.945 148C191.087 149.178 192.037 150.528 192.76 152C192.831 151.053 192.831 150.102 192.76 149.155C193.822 149.613 194.817 150.216 195.715 150.945C199.5 154.225 200.57 163.32 200.57 163.32Z" fill="#006400"/>
<path d="M185.82 149.2C184.69 148.42 183.54 147.665 182.415 146.875C182.345 146.83 182.415 146.72 182.48 146.765C184.62 148.04 186.725 149.405 188.765 150.835C189.475 151.335 190.175 151.85 190.865 152.38L190.72 152.135C190.47 151.72 190.22 151.31 189.945 150.9C189.425 150.069 188.837 149.282 188.185 148.55C188.16 148.525 188.185 148.485 188.225 148.51C188.87 149.255 189.515 150.01 190.105 150.785C190.385 151.16 190.645 151.55 190.895 151.945C191.025 152.155 191.15 152.36 191.265 152.575L191.39 152.785C192.465 153.63 193.51 154.51 194.505 155.435C195.122 156.008 195.717 156.602 196.29 157.215C195.965 156.215 195.685 155.215 195.315 154.215C195.315 154.18 195.36 154.165 195.37 154.215C195.73 155.25 196.125 156.295 196.405 157.36C197.04 158.045 197.65 158.755 198.22 159.5L198.19 159.365C198.095 158.97 198 158.58 197.895 158.195C197.695 157.445 197.47 156.695 197.22 155.96C196.742 154.433 195.986 153.007 194.99 151.755C194.965 151.725 194.99 151.685 195.03 151.715C196.584 153.654 197.672 155.924 198.21 158.35C198.3 158.7 198.38 159.055 198.46 159.41C198.505 159.6 198.555 159.79 198.585 159.985C198.835 160.325 199.085 160.665 199.32 161.015C200.728 163.179 201.901 165.487 202.82 167.9C203.863 170.606 204.757 173.367 205.5 176.17C205.497 176.179 205.491 176.186 205.483 176.192C205.476 176.197 205.467 176.2 205.457 176.2C205.448 176.2 205.439 176.197 205.431 176.192C205.424 176.186 205.418 176.179 205.415 176.17C203.79 171.315 202.135 166.39 199.355 162.055C198.769 161.138 198.136 160.252 197.46 159.4C196.086 159.312 194.729 159.043 193.425 158.6C192.003 158.118 190.645 157.461 189.385 156.645C188.667 156.16 187.974 155.637 187.31 155.08C187.305 155.078 187.301 155.076 187.298 155.072C187.295 155.069 187.292 155.065 187.291 155.06C187.29 155.056 187.29 155.051 187.291 155.046C187.291 155.041 187.293 155.037 187.296 155.033C187.299 155.03 187.303 155.027 187.307 155.025C187.312 155.023 187.316 155.022 187.321 155.022C187.326 155.022 187.33 155.023 187.335 155.026C187.339 155.028 187.342 155.031 187.345 155.035C188.504 155.971 189.784 156.746 191.15 157.34C192.491 157.955 193.894 158.425 195.335 158.74C195.945 158.875 196.57 158.975 197.19 159.06C196.423 158.115 195.607 157.21 194.745 156.35C194.465 156.07 194.175 155.8 193.885 155.53C192.918 154.854 191.892 154.266 190.82 153.775C189.46 153.115 188.12 152.42 186.775 151.735C186.015 151.35 185.275 150.955 184.5 150.58C184.465 150.58 184.5 150.52 184.53 150.535C185.89 151.195 187.275 151.81 188.65 152.44C190.025 153.07 191.26 153.63 192.5 154.325L192.66 154.42C191.535 153.42 190.37 152.51 189.16 151.61C188.07 150.8 186.955 150 185.82 149.2Z" fill="#263238"/>
<path d="M186.295 153.5C186.97 153.795 187.655 154.055 188.325 154.37C188.995 154.685 189.66 155.065 190.325 155.45C190.328 155.452 190.33 155.454 190.333 155.456C190.335 155.459 190.336 155.462 190.337 155.465C190.338 155.469 190.338 155.472 190.338 155.475C190.338 155.479 190.337 155.482 190.335 155.485C190.333 155.488 190.331 155.49 190.328 155.493C190.326 155.495 190.323 155.496 190.319 155.497C190.316 155.498 190.313 155.498 190.309 155.498C190.306 155.498 190.303 155.497 190.3 155.495C189.64 155.18 188.97 154.885 188.3 154.555C187.63 154.225 186.965 153.855 186.275 153.555C186.245 153.5 186.26 153.465 186.295 153.5Z" fill="#263238"/>
<path d="M227.5 121.5C225.96 123.475 225.085 125.887 225 128.39C224.975 129.135 225.09 130.175 225.18 131.39C223.109 132.592 221.274 134.161 219.765 136.02C221.421 135.058 223.323 134.602 225.235 134.71C225.192 135.55 225.087 136.386 224.92 137.21C223.719 137.214 222.531 137.45 221.42 137.905C222.509 137.894 223.588 138.108 224.59 138.535C223.09 143.24 218.72 148.075 206.59 150.125C205.305 144.355 206.065 138.317 208.74 133.045C212.385 125.88 227.5 121.5 227.5 121.5Z" fill="#006400"/>
<path d="M202.4 170.245C202.61 168.245 202.871 166.245 203.185 164.245C203.799 160.246 204.615 156.281 205.63 152.365C206.107 150.527 206.693 148.718 207.385 146.95C207.35 146.628 207.335 146.304 207.34 145.98C207.34 145.59 207.34 145.2 207.34 144.81C207.34 144.035 207.385 143.26 207.45 142.485C207.573 140.949 207.822 139.425 208.195 137.93C208.42 137.065 208.695 136.215 208.93 135.36C208.932 135.355 208.936 135.35 208.941 135.347C208.946 135.344 208.951 135.342 208.957 135.342C208.963 135.342 208.969 135.344 208.974 135.347C208.979 135.35 208.982 135.355 208.985 135.36C208.58 136.852 208.279 138.371 208.085 139.905C207.87 141.415 207.735 142.935 207.68 144.46C207.68 144.875 207.655 145.295 207.655 145.71C207.655 145.89 207.655 146.07 207.655 146.245C208.252 144.796 208.935 143.383 209.7 142.015C210.933 139.846 212.322 137.769 213.855 135.8C213.858 135.57 213.892 135.341 213.955 135.12C214.01 134.85 214.07 134.58 214.13 134.305C214.255 133.755 214.395 133.2 214.545 132.655C214.845 131.555 215.245 130.49 215.59 129.405C215.592 129.4 215.596 129.395 215.601 129.392C215.606 129.389 215.611 129.387 215.617 129.387C215.623 129.387 215.629 129.389 215.634 129.392C215.639 129.395 215.643 129.4 215.645 129.405C215.325 130.48 215.11 131.595 214.865 132.69C214.74 133.23 214.625 133.77 214.505 134.315C214.445 134.585 214.385 134.855 214.33 135.125C214.33 135.125 214.33 135.17 214.33 135.19C214.82 134.57 215.32 133.96 215.83 133.36C218.145 130.64 220.685 128.13 223.245 125.645C223.56 125.335 223.88 125.04 224.2 124.735C224.2 124.735 224.265 124.735 224.24 124.78C221.795 127.33 219.39 129.905 217.11 132.605C216.565 133.25 216.035 133.9 215.51 134.555L216.34 134.005C217.045 133.545 217.76 133.095 218.495 132.685C219.23 132.275 219.995 131.865 220.73 131.49C221.465 131.115 222.34 130.79 223.095 130.355C223.125 130.355 223.155 130.39 223.12 130.405C222.353 130.759 221.612 131.168 220.905 131.63C220.165 132.07 219.43 132.51 218.705 132.97C217.98 133.43 217.275 133.87 216.565 134.33C215.975 134.715 215.395 135.135 214.78 135.485C213.373 137.293 212.074 139.183 210.89 141.145C210.158 142.382 209.491 143.655 208.89 144.96L209.325 144.77L210.44 144.27C211.15 143.955 211.87 143.645 212.585 143.335C213.945 142.74 215.33 142.2 216.665 141.55C217.417 141.195 218.146 140.791 218.845 140.34C218.875 140.34 218.9 140.34 218.87 140.39C216.37 142.105 213.59 143.31 210.84 144.53L209.645 145.06C209.315 145.205 208.985 145.365 208.645 145.495C207.828 147.319 207.142 149.199 206.59 151.12C205.506 154.984 204.624 158.903 203.95 162.86C203.255 166.825 202.785 170.815 202.42 174.825C202.375 175.325 202.33 175.825 202.27 176.325C202.263 176.362 202.244 176.395 202.215 176.419C202.186 176.443 202.15 176.457 202.112 176.457C202.075 176.457 202.038 176.443 202.01 176.419C201.981 176.395 201.961 176.362 201.955 176.325C202 174.305 202.185 172.27 202.4 170.245Z" fill="#263238"/>
<path d="M209.785 136.725C210.005 135.49 210.335 134.285 210.665 133.075C210.665 133.04 210.73 133.075 210.72 133.075C210.415 134.26 210.195 135.47 209.97 136.67C209.745 137.87 209.545 139.13 209.37 140.365C209.37 140.365 209.335 140.39 209.335 140.365C209.416 139.144 209.566 137.929 209.785 136.725Z" fill="#263238"/>
<path d="M215 140.07C215.845 139.511 216.727 139.01 217.64 138.57C218.08 138.345 218.53 138.125 218.975 137.91C219.42 137.695 219.92 137.5 220.38 137.27C220.41 137.27 220.435 137.3 220.38 137.315C219.935 137.54 219.515 137.815 219.08 138.045L217.73 138.785C216.845 139.26 215.97 139.785 215.04 140.175C215.029 140.172 215.02 140.167 215.012 140.159C215.004 140.152 214.997 140.143 214.994 140.133C214.99 140.122 214.988 140.111 214.989 140.101C214.99 140.09 214.994 140.079 215 140.07Z" fill="#263238"/>
<path opacity="0.1" d="M200.42 148.95C200.42 148.95 192.745 147.115 189.22 141.95C185.855 137.035 184.765 128.65 184.68 127.91C184.815 128.59 186.4 135.91 191.625 139.33C195.63 141.96 199.5 144.11 200.42 148.95Z" fill="#263238"/>
<path d="M200.42 148.95C200.42 148.95 192.745 147.115 189.22 141.95C185.855 137.035 184.765 128.65 184.68 127.91C184.677 127.893 184.677 127.876 184.68 127.86C184.68 127.86 188.36 133.095 192.23 134.43C196.1 135.765 201.53 140.395 200.42 148.95Z" fill="#006400"/>
<path d="M186.03 130.76C186.719 132.171 187.513 133.528 188.405 134.82C189.299 136.046 190.361 137.14 191.56 138.07C192.605 138.9 193.705 139.65 194.76 140.46V140.42C194.56 140.13 194.35 139.84 194.13 139.565C193.69 139 193.21 138.47 192.725 137.945C191.775 136.91 190.8 135.895 189.945 134.775C189.468 134.152 189.056 133.481 188.715 132.775C188.715 132.74 188.75 132.725 188.765 132.775C190.01 135.37 192.5 137.03 194.265 139.22C194.516 139.531 194.751 139.855 194.97 140.19C195.146 140.433 195.295 140.694 195.415 140.97C196.387 141.75 197.266 142.639 198.035 143.62C197.968 143.113 197.865 142.612 197.725 142.12C197.548 141.436 197.273 140.781 196.91 140.175C196.91 140.145 196.94 140.11 196.96 140.145C197.33 140.752 197.631 141.4 197.855 142.075C198.017 142.613 198.111 143.169 198.135 143.73C198.515 144.246 198.862 144.785 199.175 145.345C199.14 145.18 199.11 145.015 199.08 144.845C198.925 144.08 198.76 143.315 198.58 142.56C198.218 141.023 197.593 139.56 196.735 138.235C196.71 138.205 196.735 138.175 196.78 138.205C197.66 139.51 198.349 140.934 198.825 142.435C199.07 143.19 199.265 143.935 199.44 144.73C199.525 145.105 199.6 145.485 199.67 145.865C199.71 146.06 199.75 146.265 199.785 146.465C200.545 148.137 201.138 149.881 201.555 151.67C202.307 154.866 202.853 158.108 203.19 161.375C203.586 164.795 203.763 168.237 203.72 171.68C203.72 172.115 203.685 172.545 203.665 172.975C203.665 173.085 203.49 173.105 203.485 172.975C203.41 171.27 203.365 169.565 203.265 167.865C203.165 166.165 203.015 164.465 202.835 162.765C202.485 159.43 201.95 156.116 201.235 152.84C200.61 150.035 199.805 147.21 198.27 144.75C197.508 143.526 196.575 142.416 195.5 141.455C194.425 140.49 193.25 139.645 192.115 138.75C190.965 137.875 189.921 136.868 189.005 135.75C188.068 134.51 187.251 133.184 186.565 131.79L186.015 130.75C185.965 130.76 186 130.73 186.03 130.76Z" fill="#263238"/>
<path d="M187.355 131.89C187.86 132.926 188.431 133.928 189.065 134.89C189.065 134.89 189.065 134.935 189.03 134.89C188.371 133.94 187.792 132.937 187.3 131.89C187.285 131.875 187.34 131.855 187.355 131.89Z" fill="#263238"/>
<path d="M228.59 145.555C228.59 145.555 228.715 156.465 222.19 159.61C215.665 162.755 212.19 160.14 207.74 161.195C207.91 160.935 211.075 156.385 216.105 155.135C221.285 153.84 227 150.1 228.59 145.555Z" fill="#006400"/>
<path opacity="0.1" d="M228.59 145.555C228.59 145.555 228.715 156.465 222.19 159.61C215.665 162.755 212.19 160.14 207.74 161.195C210.082 160.078 212.587 159.337 215.16 159C219.275 158.5 227.13 155.825 228.59 145.555Z" fill="black"/>
<path d="M207.31 161.39C208.085 160.68 208.959 160.087 209.905 159.63C210.04 159.565 210.185 159.51 210.33 159.45C210.396 159.362 210.468 159.279 210.545 159.2C210.745 158.995 210.945 158.8 211.16 158.615C211.57 158.263 212.01 157.947 212.475 157.67C213.555 157.035 214.74 156.59 215.845 156C215.875 156 215.905 156.03 215.87 156.05C215.325 156.33 214.795 156.645 214.265 156.955C213.735 157.265 213.22 157.545 212.715 157.87C212.263 158.161 211.832 158.484 211.425 158.835C211.31 158.935 211.2 159.045 211.09 159.155C211.811 158.913 212.548 158.717 213.295 158.57C214.49 158.33 215.695 158.16 216.89 157.905C217.474 157.78 218.052 157.625 218.62 157.44C219.16 157 219.7 156.57 220.215 156.095C220.834 155.526 221.399 154.9 221.9 154.225C221.9 154.2 221.97 154.225 221.945 154.255C221.154 155.326 220.26 156.315 219.275 157.21C219.555 157.1 219.83 156.985 220.105 156.86C222.347 155.856 224.27 154.257 225.665 152.235C225.665 152.205 225.735 152.235 225.715 152.265C224.528 154 222.996 155.47 221.215 156.585C220.324 157.142 219.37 157.593 218.375 157.93C217.219 158.288 216.039 158.567 214.845 158.765C213.675 158.955 212.52 159.229 211.39 159.585C210.349 159.938 209.37 160.452 208.49 161.11C206.829 162.401 205.491 164.059 204.58 165.955C203.411 168.479 202.682 171.185 202.425 173.955C202.425 174.07 202.235 174.07 202.24 173.955C202.545 169.345 203.775 164.57 207.31 161.39Z" fill="#263238"/>
<path d="M214.88 157.83C215.22 157.321 215.68 156.904 216.22 156.615C216.839 156.292 217.382 155.842 217.815 155.295C217.815 155.265 217.885 155.295 217.86 155.325C217.469 155.824 216.993 156.25 216.455 156.585C215.863 156.901 215.341 157.333 214.92 157.855C214.9 157.88 214.86 157.855 214.88 157.83Z" fill="#263238"/>
<path d="M211.415 169.44L211.12 175.44L210.21 193.765H196.525L195.615 175.44L195.32 169.44H211.415Z" fill="#37474F"/>
<path d="M211.415 169.44L211.12 175.44H195.615L195.32 169.44H211.415Z" fill="#263238"/>
<path d="M212.375 166.935H194.36V172.66H212.375V166.935Z" fill="#37474F"/>
<path d="M21.6101 193.765L47.5801 193.645L73.5551 193.6L125.5 193.515L177.445 193.6L203.42 193.645L229.39 193.765L203.42 193.89L177.445 193.935L125.5 194.015L73.5551 193.93L47.5801 193.89L21.6101 193.765Z" fill="#263238"/>
<path d="M188.11 207.13V32.8649C188.11 29.3054 185.225 26.4199 181.665 26.4199L69.3401 26.4199C65.7806 26.4199 62.8951 29.3054 62.8951 32.8649L62.8951 207.13C62.8951 210.689 65.7806 213.575 69.3401 213.575H181.665C185.225 213.575 188.11 210.689 188.11 207.13Z" fill="#263238"/>
<path d="M182.825 39.52H68.3201V200.59H182.825V39.52Z" fill="white"/>
<path d="M139.12 34.3698V33.6748C139.12 33.3296 138.84 33.0498 138.495 33.0498H112.495C112.15 33.0498 111.87 33.3296 111.87 33.6748V34.3698C111.87 34.715 112.15 34.9948 112.495 34.9948H138.495C138.84 34.9948 139.12 34.715 139.12 34.3698Z" fill="#37474F"/>
<path d="M125.5 210.445C127.447 210.445 129.025 208.867 129.025 206.92C129.025 204.973 127.447 203.395 125.5 203.395C123.553 203.395 121.975 204.973 121.975 206.92C121.975 208.867 123.553 210.445 125.5 210.445Z" fill="#37474F"/>
<path d="M165.185 61.6399H85.9651V62.7549H165.185V61.6399Z" fill="#EBEBEB"/>
<path d="M165.185 65.0999H85.9651V66.2149H165.185V65.0999Z" fill="#EBEBEB"/>
<path d="M165.185 170.465H85.9651V171.58H165.185V170.465Z" fill="#EBEBEB"/>
<path d="M165.185 173.925H85.9651V175.04H165.185V173.925Z" fill="#EBEBEB"/>
<path d="M105.225 185.93C107.246 185.93 108.885 184.291 108.885 182.27C108.885 180.249 107.246 178.61 105.225 178.61C103.204 178.61 101.565 180.249 101.565 182.27C101.565 184.291 103.204 185.93 105.225 185.93Z" fill="#006400"/>
<path d="M105.285 184.405L103.105 182.2L103.84 181.475L105.11 182.765L107.76 178.615L108.625 179.17L105.285 184.405Z" fill="white"/>
<path d="M114.39 182.24C114.392 181.977 114.44 181.717 114.53 181.47C114.623 181.218 114.764 180.987 114.945 180.79C115.138 180.572 115.376 180.398 115.643 180.282C115.91 180.165 116.199 180.108 116.49 180.115C116.841 180.109 117.187 180.199 117.49 180.375C117.762 180.532 117.982 180.765 118.125 181.045L117.5 181.5C117.45 181.387 117.381 181.284 117.295 181.195C117.22 181.118 117.134 181.053 117.04 181C116.948 180.953 116.851 180.918 116.75 180.895C116.653 180.875 116.554 180.865 116.455 180.865C116.267 180.86 116.082 180.903 115.915 180.99C115.764 181.069 115.633 181.18 115.53 181.315C115.427 181.452 115.349 181.606 115.3 181.77C115.187 182.111 115.187 182.479 115.3 182.82C115.356 182.988 115.442 183.144 115.555 183.28C115.665 183.41 115.799 183.519 115.95 183.6C116.105 183.679 116.276 183.72 116.45 183.72C116.551 183.718 116.652 183.705 116.75 183.68C116.853 183.658 116.953 183.621 117.045 183.57C117.14 183.515 117.228 183.448 117.305 183.37C117.387 183.282 117.453 183.18 117.5 183.07L118.175 183.46C118.108 183.62 118.009 183.764 117.885 183.885C117.76 184.007 117.616 184.11 117.46 184.19C117.142 184.361 116.786 184.45 116.425 184.45C116.136 184.452 115.85 184.387 115.59 184.26C115.343 184.136 115.123 183.967 114.94 183.76C114.758 183.553 114.614 183.316 114.515 183.06C114.42 182.797 114.378 182.519 114.39 182.24Z" fill="#006400"/>
<path d="M120.54 184.43C120.246 184.435 119.955 184.371 119.69 184.245C119.193 184.005 118.808 183.582 118.615 183.065C118.516 182.812 118.465 182.542 118.465 182.27C118.465 181.991 118.519 181.714 118.625 181.455C118.727 181.201 118.874 180.967 119.06 180.765C119.248 180.558 119.474 180.388 119.725 180.265C119.988 180.147 120.272 180.088 120.56 180.09C120.851 180.085 121.14 180.15 121.4 180.28C121.65 180.401 121.872 180.571 122.055 180.78C122.247 180.99 122.398 181.235 122.5 181.5C122.598 181.752 122.649 182.02 122.65 182.29C122.65 182.57 122.596 182.846 122.49 183.105C122.392 183.359 122.246 183.592 122.06 183.79C121.873 183.988 121.649 184.148 121.4 184.26C121.13 184.382 120.836 184.44 120.54 184.43ZM119.305 182.27C119.306 182.452 119.334 182.632 119.39 182.805C119.443 182.97 119.524 183.124 119.63 183.26C119.739 183.391 119.871 183.499 120.02 183.58C120.183 183.66 120.363 183.7 120.545 183.695C120.73 183.699 120.914 183.658 121.08 183.575C121.23 183.494 121.363 183.383 121.47 183.25C121.575 183.111 121.656 182.956 121.71 182.79C121.76 182.628 121.786 182.46 121.79 182.29C121.791 182.108 121.76 181.927 121.7 181.755C121.647 181.59 121.564 181.436 121.455 181.3C121.351 181.166 121.218 181.058 121.065 180.985C120.91 180.908 120.738 180.869 120.565 180.87C120.381 180.867 120.199 180.908 120.035 180.99C119.881 181.066 119.747 181.177 119.645 181.315C119.539 181.452 119.458 181.606 119.405 181.77C119.347 181.931 119.313 182.099 119.305 182.27Z" fill="#006400"/>
<path d="M124.085 181.67V184.4H123.26V180.14H123.9L126.12 182.935V180.145H126.95V184.4H126.275L124.085 181.67Z" fill="#006400"/>
<path d="M127.835 184.4V180.14H130.7V180.865H128.665V181.965H130.355V182.635H128.665V184.4H127.835Z" fill="#006400"/>
<path d="M131.28 184.4V180.14H132.11V184.4H131.28Z" fill="#006400"/>
<path d="M133 184.4V180.14H134.885C135.073 180.138 135.26 180.179 135.43 180.26C135.591 180.342 135.737 180.452 135.86 180.585C135.978 180.72 136.072 180.874 136.14 181.04C136.205 181.198 136.239 181.368 136.24 181.54C136.245 181.806 136.173 182.068 136.035 182.295C135.907 182.517 135.711 182.693 135.475 182.795L136.445 184.4H135.5L134.63 182.97H133.815V184.4H133ZM133.83 182.245H134.87C134.944 182.247 135.017 182.228 135.08 182.19C135.146 182.154 135.204 182.105 135.25 182.045C135.302 181.979 135.341 181.905 135.365 181.825C135.395 181.738 135.411 181.647 135.41 181.555C135.409 181.461 135.392 181.368 135.36 181.28C135.331 181.199 135.287 181.124 135.23 181.06C135.178 181 135.115 180.951 135.045 180.915C134.978 180.881 134.905 180.864 134.83 180.865H133.83V182.245Z" fill="#006400"/>
<path d="M140.46 184.4V181.58L139.365 183.68H138.915L137.815 181.58V184.4H137V180.14H137.89L139.15 182.565L140.42 180.14H141.305V184.4H140.46Z" fill="#006400"/>
<path d="M145.135 183.675V184.4H142.175V180.14H145.08V180.865H143V181.865H144.795V182.54H143V183.65L145.135 183.675Z" fill="#006400"/>
<path d="M145.785 184.4V180.14H147.33C147.643 180.132 147.955 180.19 148.245 180.31C148.496 180.411 148.721 180.566 148.905 180.765C149.082 180.96 149.217 181.19 149.3 181.44C149.483 181.993 149.483 182.591 149.3 183.145C149.208 183.395 149.064 183.623 148.877 183.813C148.69 184.003 148.464 184.15 148.215 184.245C147.938 184.352 147.642 184.405 147.345 184.4H145.785ZM148.595 182.265C148.599 182.073 148.57 181.882 148.51 181.7C148.461 181.536 148.377 181.384 148.265 181.255C148.157 181.13 148.022 181.03 147.87 180.965C147.698 180.897 147.515 180.863 147.33 180.865H146.61V183.675H147.33C147.517 183.677 147.703 183.639 147.875 183.565C148.027 183.497 148.162 183.397 148.27 183.27C148.379 183.137 148.461 182.984 148.51 182.82C148.57 182.641 148.598 182.453 148.595 182.265Z" fill="#006400"/>
<path d="M156.82 162.7H94.1802V109.71L125.495 89.8201L156.82 109.71V162.7Z" fill="#006400"/>
<path opacity="0.2" d="M156.82 162.7H94.1802V109.71L125.495 89.8201L156.82 109.71V162.7Z" fill="black"/>
<path d="M153.285 87.3H97.7102V158.645H153.285V87.3Z" fill="#EBEBEB"/>
<path d="M122.115 129.985L109.39 117.105L113.665 112.88L121.1 120.405L136.54 96.1951L141.61 99.4251L122.115 129.985Z" fill="#006400"/>
<path d="M156.82 123V162.7H94.1802V123C96.8702 124.5 99.5152 126.12 102.18 127.68C104.845 129.24 107.485 130.86 110.12 132.48C113.055 134.265 115.99 136.085 118.915 137.915L119.01 137.86C118.98 137.86 118.96 137.91 118.935 137.925C121.122 139.275 123.31 140.633 125.5 142C127.68 140.625 129.875 139.24 132.065 137.885C132.04 137.885 132.02 137.84 131.99 137.82C132.02 137.841 132.052 137.857 132.085 137.87C135.009 136.047 137.94 134.233 140.88 132.43C143.517 130.82 146.16 129.223 148.81 127.64C151.5 126.095 154.13 124.5 156.82 123Z" fill="#006400"/>
<g opacity="0.2">
<path d="M156.82 123C154.29 124.775 151.715 126.5 149.165 128.23C146.615 129.96 144.02 131.65 141.43 133.345C138.73 135.115 136.025 136.868 133.315 138.605L133.07 138.775L125.855 143.375L125.495 143.59L125.145 143.375L117.94 138.765L117.685 138.605C114.969 136.865 112.26 135.108 109.56 133.335C106.98 131.65 104.405 129.94 101.835 128.23C99.2652 126.52 96.7102 124.75 94.1802 123C96.8702 124.5 99.5152 126.12 102.18 127.68C104.845 129.24 107.485 130.86 110.12 132.48C113.055 134.265 115.99 136.085 118.915 137.915C121.115 139.272 123.31 140.633 125.5 142C127.68 140.625 129.875 139.24 132.065 137.885C134.989 136.062 137.92 134.248 140.86 132.445C143.497 130.835 146.14 129.238 148.79 127.655C151.5 126.095 154.13 124.5 156.82 123Z" fill="black"/>
<path d="M119 137.835C118.97 137.835 118.95 137.885 118.925 137.9L117.925 138.74C116.355 140.065 114.745 141.335 113.11 142.57C111.11 144.07 109.075 145.57 107.025 147C104.975 148.43 102.895 149.83 100.775 151.185C98.6552 152.54 96.5252 153.865 94.3152 155.08C96.2152 153.415 98.1902 151.86 100.185 150.35C102.18 148.84 104.23 147.35 106.27 145.915C108.31 144.48 110.41 143.075 112.525 141.72C114.21 140.64 115.925 139.575 117.67 138.58C118.075 138.345 118.48 138.12 118.895 137.89L119 137.835Z" fill="black"/>
<path d="M156.67 155.08C154.46 153.865 152.315 152.54 150.21 151.185C148.105 149.83 146 148.42 143.95 147C141.9 145.58 139.86 144.09 137.865 142.57C136.24 141.335 134.63 140.07 133.07 138.75L132.07 137.9C132.045 137.9 132.025 137.855 131.995 137.835C132.025 137.855 132.057 137.872 132.09 137.885C132.505 138.12 132.91 138.345 133.315 138.58C135.06 139.58 136.765 140.64 138.46 141.72C140.575 143.075 142.645 144.485 144.705 145.915C146.765 147.345 148.795 148.825 150.79 150.35C152.785 151.875 154.77 153.415 156.67 155.08Z" fill="black"/>
</g>
<path d="M98.7002 83.9C98.3669 81.1517 98.3669 78.3733 98.7002 75.625C99.0335 78.3733 99.0335 81.1517 98.7002 83.9Z" fill="#263238"/>
<path d="M95.1802 85.215C94.0843 84.3695 93.0469 83.4507 92.0752 82.465C91.0883 81.4961 90.1695 80.4603 89.3252 79.365C91.5045 81.073 93.4704 83.0371 95.1802 85.215Z" fill="#263238"/>
<path d="M93.6251 88.63C92.2524 88.8079 90.8692 88.8914 89.4851 88.88C88.1027 88.8955 86.721 88.8136 85.3501 88.635C86.7208 88.4547 88.1026 88.3711 89.4851 88.385C90.8691 88.3719 92.2523 88.4538 93.6251 88.63Z" fill="#263238"/>
<path d="M94.9401 92.1449C93.2303 94.3226 91.2663 96.2882 89.0901 97.9999C90.796 95.8173 92.7604 93.8496 94.9401 92.1399V92.1449Z" fill="#263238"/>
<path d="M151.925 83.9C151.751 82.527 151.67 81.1439 151.68 79.76C151.67 78.3775 151.755 76.9959 151.935 75.625C152.268 78.3733 152.268 81.1517 151.935 83.9H151.925Z" fill="#263238"/>
<path d="M155.445 85.215C157.155 83.0371 159.121 81.073 161.3 79.365C160.456 80.4603 159.537 81.4961 158.55 82.465C157.578 83.4507 156.541 84.3695 155.445 85.215Z" fill="#263238"/>
<path d="M157 88.6301C158.373 88.4538 159.756 88.372 161.14 88.3851C162.522 88.371 163.904 88.4545 165.275 88.6351C163.904 88.8138 162.522 88.8956 161.14 88.8801C159.756 88.8915 158.373 88.8079 157 88.6301Z" fill="#263238"/>
<path d="M155.685 92.145C157.864 93.8531 159.829 95.8191 161.535 98C160.441 97.1526 159.405 96.2321 158.435 95.245C157.448 94.276 156.529 93.2403 155.685 92.145Z" fill="#263238"/>
<path d="M85.145 228.56C84.065 228.91 53.3 228.51 52.145 227.75C51.7 227.47 51.495 222.985 51.405 217.555V217.385C51.405 216.27 51.37 215.115 51.365 213.95C51.365 213.79 51.365 213.63 51.365 213.45L52.865 197.49L73.445 197.695L71.41 213.505V214.13L71.285 217.4V217.74C71.285 217.74 82.995 223.16 84.185 224.13C85.375 225.1 86.22 228.22 85.145 228.56Z" fill="#F7A9A0"/>
<path d="M85.145 228.56C84.065 228.91 53.3 228.51 52.145 227.75C51.7 227.47 51.495 222.985 51.405 217.555V217.385C51.405 216.27 51.37 215.115 51.365 213.95C51.365 213.79 51.365 213.63 51.365 213.45L71.405 213.505V214.13L71.28 217.4V217.74C71.28 217.74 82.99 223.16 84.18 224.13C85.37 225.1 86.22 228.22 85.145 228.56Z" fill="#EBEBEB"/>
<path d="M85.235 228.635C84.145 228.985 53.1 228.69 51.925 227.93C51.475 227.645 51.255 223.12 51.145 217.645L71.145 217.78C71.145 217.78 82.98 223.21 84.185 224.18C85.39 225.15 86.32 228.28 85.235 228.635Z" fill="#006400"/>
<path d="M84.7999 227.39C79.5999 227.21 58.5949 226.985 53.4399 227.205C53.3999 227.205 53.3999 227.235 53.4399 227.24C58.5949 227.525 79.5949 227.58 84.7999 227.475C84.9099 227.47 84.9099 227.39 84.7999 227.39Z" fill="#263238"/>
<path d="M82.21 223.045C81.6319 223.026 81.0559 223.126 80.5182 223.339C79.9805 223.552 79.4926 223.874 79.085 224.285C78.3488 225.022 77.923 226.013 77.895 227.055C77.895 227.085 77.955 227.085 77.96 227.055C78.1459 226.026 78.6608 225.085 79.4271 224.374C80.1935 223.662 81.1701 223.219 82.21 223.11C82.2153 223.112 82.2211 223.113 82.2268 223.112C82.2325 223.112 82.2379 223.11 82.2426 223.106C82.2474 223.103 82.2512 223.099 82.2539 223.094C82.2566 223.089 82.258 223.083 82.258 223.077C82.258 223.072 82.2566 223.066 82.2539 223.061C82.2512 223.056 82.2474 223.052 82.2426 223.048C82.2379 223.045 82.2325 223.043 82.2268 223.043C82.2211 223.042 82.2153 223.043 82.21 223.045Z" fill="#263238"/>
<path d="M73.175 218.32C71.09 218.27 68.675 218.98 67.36 220.67C67.31 220.74 67.405 220.81 67.465 220.775C69.2964 219.839 71.2223 219.102 73.21 218.575C73.2401 218.566 73.2661 218.547 73.2832 218.521C73.3003 218.495 73.3073 218.463 73.3031 218.432C73.2988 218.401 73.2835 218.373 73.26 218.352C73.2365 218.331 73.2063 218.32 73.175 218.32Z" fill="#263238"/>
<path d="M74.7748 218.96C72.6948 218.91 70.2748 219.625 68.9598 221.315C68.9098 221.38 69.0048 221.45 69.0648 221.42C70.8955 220.482 72.8215 219.742 74.8098 219.215C74.8399 219.206 74.8659 219.187 74.883 219.161C74.9001 219.135 74.9072 219.103 74.9029 219.072C74.8987 219.041 74.8834 219.013 74.8599 218.992C74.8363 218.972 74.8061 218.96 74.7748 218.96Z" fill="#263238"/>
<path d="M76.3801 219.6C74.2951 219.555 71.8801 220.265 70.5651 221.955C70.5151 222.02 70.6051 222.095 70.6701 222.06C72.5 221.126 74.4242 220.388 76.4101 219.86C76.4381 219.849 76.4618 219.83 76.4775 219.804C76.4931 219.778 76.4997 219.748 76.4962 219.718C76.4928 219.689 76.4795 219.661 76.4584 219.639C76.4374 219.618 76.4098 219.604 76.3801 219.6Z" fill="#263238"/>
<path d="M77.9999 220.245C75.9199 220.195 73.4999 220.91 72.1849 222.6C72.1349 222.665 72.2299 222.735 72.2899 222.705C74.1094 221.769 76.0236 221.03 77.9999 220.5C78.0294 220.494 78.056 220.478 78.0751 220.455C78.0941 220.432 78.1046 220.403 78.1046 220.373C78.1046 220.343 78.0941 220.313 78.0751 220.29C78.056 220.267 78.0294 220.251 77.9999 220.245Z" fill="#263238"/>
<path d="M54.8149 222.275C52.4749 222.275 52.4499 225.89 54.8149 225.905C57.1799 225.92 57.1549 222.29 54.8149 222.275Z" fill="white"/>
<path d="M75.5 212.78C74.455 211.895 73.115 212.74 72.46 213.64C71.3513 215.207 70.6753 217.038 70.5 218.95C70.5 218.99 70.53 219.01 70.565 219.01C70.5725 219.049 70.5892 219.086 70.6137 219.117C70.6383 219.149 70.67 219.174 70.7062 219.19C70.7424 219.207 70.7821 219.215 70.8219 219.213C70.8617 219.211 70.9004 219.2 70.935 219.18C72.435 218.18 74.15 217.27 75.29 215.835C75.95 215 76.47 213.62 75.5 212.78ZM72.9 217.185C72.18 217.685 71.435 218.185 70.735 218.72C71.0824 217.675 71.4829 216.649 71.935 215.645C72.1627 215.162 72.4216 214.694 72.71 214.245C73.17 213.56 75.21 211.84 75.415 214.11C75.5 215.36 73.74 216.57 72.88 217.185H72.9Z" fill="#263238"/>
<path d="M65.3098 219.67C67.1248 219.965 68.9999 219.47 70.7849 219.21C70.8234 219.2 70.8591 219.181 70.8892 219.155C70.9193 219.129 70.943 219.096 70.9585 219.06C70.9739 219.023 70.9807 218.983 70.9784 218.943C70.976 218.904 70.9645 218.865 70.9448 218.83C70.9511 218.825 70.9562 218.819 70.9597 218.811C70.9631 218.804 70.9649 218.796 70.9649 218.788C70.9649 218.78 70.9631 218.772 70.9597 218.764C70.9562 218.757 70.9511 218.75 70.9448 218.745C69.5363 217.451 67.8118 216.551 65.9448 216.135C64.8498 215.91 63.2948 216.19 63.1198 217.55C62.9448 218.835 64.2548 219.5 65.3098 219.67ZM64.0648 218.5C62.6748 216.7 65.3548 216.58 66.1548 216.775C66.6657 216.907 67.1669 217.074 67.6548 217.275C68.6848 217.685 69.6549 218.23 70.6199 218.735C69.7349 218.81 68.8649 218.96 67.9799 219.065C66.9449 219.175 64.8348 219.465 64.0648 218.5Z" fill="#263238"/>
<path opacity="0.1" d="M67.65 228.685C59.935 228.55 52.49 228.295 51.925 227.93C51.475 227.645 51.255 223.12 51.145 217.645H53.995C57.145 220.225 63.81 225.59 67.65 228.685Z" fill="black"/>
<path d="M72.6 217.5H50.445C50.445 217.5 54.905 165.755 54.73 164.85C54.51 163.69 53.2 158.455 51.46 151.61C50.915 149.47 50.325 147.175 49.715 144.795C48.06 138.355 46.215 131.32 44.655 125.195C42.275 116.025 40.415 108.9 40.415 108.9H59.19C59.19 108.9 61.38 115.835 64.14 124.865C68.64 139.53 74.64 159.72 75.23 164.63C76.19 172.545 72.6 217.5 72.6 217.5Z" fill="#37474F"/>
<path d="M71.62 213.71C68.235 213.64 69.205 213.615 65.82 213.58C64.165 213.58 53.285 213.47 51.735 213.725C51.7257 213.725 51.7168 213.729 51.7102 213.735C51.7036 213.742 51.7 213.751 51.7 213.76C51.7 213.77 51.7036 213.778 51.7102 213.785C51.7168 213.792 51.7257 213.795 51.735 213.795C53.285 214.05 64.165 213.955 65.82 213.94C69.205 213.91 68.235 213.88 71.62 213.81C71.6332 213.81 71.6459 213.805 71.6553 213.796C71.6647 213.786 71.6699 213.773 71.6699 213.76C71.6699 213.747 71.6647 213.734 71.6553 213.725C71.6459 213.715 71.6332 213.71 71.62 213.71Z" fill="#263238"/>
<path d="M58.8999 161.675C58.1749 158.475 57.0849 155.335 56.1399 152.175C54.2199 145.792 52.2882 139.408 50.3449 133.025C49.3749 129.835 48.4016 126.645 47.4249 123.455C46.9316 121.845 46.4316 120.237 45.9249 118.63C45.4249 117.055 44.8699 115.5 44.4249 113.91C44.2449 113.265 44.1449 113.62 44.3799 114.44C44.8449 116.09 45.3049 117.745 45.7899 119.395C46.7399 122.662 47.6999 125.925 48.6699 129.185C50.5899 135.675 52.5266 142.16 54.4799 148.64C55.4566 151.893 56.4349 155.143 57.4149 158.39C57.9104 159.937 58.3095 161.513 58.6099 163.11C58.8739 164.778 58.9411 166.471 58.8099 168.155C58.5949 171.545 58.1999 174.93 57.8899 178.31C57.5799 181.69 57.2599 185.09 56.9499 188.475C56.3266 195.222 55.7066 201.967 55.0899 208.71C55.0149 209.565 54.9399 210.42 54.8749 211.28C54.8749 211.565 55.2849 211.54 55.3149 211.28C56.0449 204.615 56.6049 197.92 57.2299 191.245C57.8549 184.57 58.4799 177.95 59.0999 171.305C59.2549 169.635 59.4349 167.965 59.4349 166.305C59.4308 164.746 59.2513 163.193 58.8999 161.675Z" fill="#263238"/>
<path d="M57.06 108.89C55.755 118.975 53.27 137.89 51.46 151.6C47.225 135 40.415 108.89 40.415 108.89H57.06Z" fill="#263238"/>
<path d="M61.6701 228.86C60.5951 229.21 29.8301 228.925 28.6701 228.17C28.2251 227.89 28.0051 223.405 27.8951 217.975V217.805C27.8701 216.69 27.8501 215.535 27.8451 214.37C27.8451 214.21 27.8451 214.05 27.8451 213.87C27.7751 206.04 28.3451 197.915 28.3451 197.915L48.4551 198.045L47.8901 213.855V214.48L47.7801 217.755V218.09C47.7801 218.09 59.4551 223.5 60.6451 224.45C61.8351 225.4 62.7501 228.5 61.6701 228.86Z" fill="#F7A9A0"/>
<path d="M61.67 228.86C60.595 229.21 29.83 228.925 28.67 228.17C28.225 227.89 28.005 223.405 27.895 217.975V217.805C27.87 216.69 27.85 215.535 27.845 214.37C27.845 214.21 27.845 214.05 27.845 213.87H47.885V214.495L47.775 217.77V218.105C47.775 218.105 59.455 223.5 60.645 224.45C61.835 225.4 62.75 228.5 61.67 228.86Z" fill="#EBEBEB"/>
<path d="M61.7951 228.795C60.7051 229.145 29.6601 228.85 28.4851 228.09C28.0351 227.805 27.8151 223.28 27.7051 217.805L47.7051 217.94C47.7051 217.94 59.5401 223.37 60.7401 224.34C61.9401 225.31 62.8801 228.44 61.7951 228.795Z" fill="#006400"/>
<path d="M61.36 227.55C56.155 227.37 35.155 227.145 30 227.365C29.96 227.365 29.96 227.395 30 227.395C35.15 227.685 56.155 227.74 61.36 227.635C61.47 227.63 61.47 227.55 61.36 227.55Z" fill="#263238"/>
<path d="M58.7701 223.205C58.1919 223.185 57.6158 223.285 57.0781 223.499C56.5403 223.712 56.0525 224.034 55.6451 224.445C54.9072 225.181 54.481 226.173 54.4551 227.215C54.4551 227.245 54.5151 227.245 54.5201 227.215C54.706 226.186 55.2208 225.245 55.9872 224.534C56.7536 223.822 57.7301 223.379 58.7701 223.27C58.7766 223.267 58.7821 223.263 58.7861 223.257C58.79 223.251 58.7921 223.245 58.7921 223.238C58.7921 223.231 58.79 223.224 58.7861 223.218C58.7821 223.212 58.7766 223.208 58.7701 223.205Z" fill="#263238"/>
<path d="M49.735 218.5C47.65 218.455 45.235 219.165 43.92 220.855C43.87 220.92 43.96 220.995 44.025 220.96C45.8564 220.025 47.7823 219.287 49.77 218.76C49.7982 218.749 49.8219 218.729 49.8372 218.703C49.8526 218.677 49.8587 218.646 49.8547 218.616C49.8507 218.586 49.8367 218.559 49.815 218.537C49.7933 218.516 49.7651 218.503 49.735 218.5Z" fill="#263238"/>
<path d="M51.3349 219.12C49.2549 219.07 46.8349 219.78 45.5199 221.475C45.4699 221.54 45.5649 221.61 45.6249 221.58C47.4555 220.642 49.3816 219.903 51.3699 219.375C51.4 219.367 51.426 219.347 51.4431 219.321C51.4602 219.295 51.4673 219.263 51.463 219.232C51.4587 219.201 51.4434 219.173 51.4199 219.152C51.3964 219.132 51.3662 219.12 51.3349 219.12Z" fill="#263238"/>
<path d="M52.9399 219.76C50.8549 219.71 48.4399 220.425 47.1249 222.115C47.0699 222.18 47.1649 222.25 47.2299 222.22C49.0586 221.283 50.983 220.545 52.9699 220.02C52.9979 220.01 53.0217 219.99 53.0373 219.964C53.0529 219.939 53.0595 219.908 53.056 219.879C53.0526 219.849 53.0393 219.821 53.0183 219.799C52.9972 219.778 52.9696 219.764 52.9399 219.76Z" fill="#263238"/>
<path d="M54.54 220.405C52.455 220.355 50.04 221.065 48.725 222.76C48.675 222.825 48.77 222.895 48.83 222.865C50.6603 221.926 52.5864 221.186 54.575 220.66C54.6051 220.651 54.6311 220.632 54.6482 220.606C54.6653 220.58 54.6723 220.548 54.6681 220.517C54.6638 220.486 54.6485 220.458 54.625 220.437C54.6015 220.416 54.5713 220.405 54.54 220.405Z" fill="#263238"/>
<path d="M31.375 222.435C29.035 222.435 29.01 226.05 31.375 226.065C33.74 226.08 33.715 222.45 31.375 222.435Z" fill="white"/>
<path d="M52.04 212.94C50.99 212.055 49.655 212.9 48.995 213.8C47.8941 215.368 47.225 217.197 47.055 219.105C47.0541 219.114 47.0552 219.122 47.0582 219.13C47.0612 219.138 47.0661 219.146 47.0724 219.151C47.0787 219.157 47.0863 219.162 47.0946 219.164C47.1029 219.166 47.1116 219.167 47.12 219.165C47.1268 219.205 47.143 219.242 47.1673 219.274C47.1916 219.306 47.2232 219.332 47.2595 219.349C47.2958 219.366 47.3357 219.374 47.3758 219.373C47.4159 219.371 47.4551 219.36 47.49 219.34C48.99 218.34 50.705 217.43 51.845 215.99C52.5 215.15 53.03 213.775 52.04 212.94ZM49.44 217.345C48.72 217.845 47.975 218.345 47.275 218.875C47.6306 217.83 48.0395 216.803 48.5 215.8C48.7277 215.319 48.9866 214.853 49.275 214.405C49.735 213.72 51.775 212 51.98 214.265C52.06 215.5 50.3 216.73 49.44 217.345Z" fill="#263238"/>
<path d="M41.87 219.83C43.68 220.125 45.56 219.625 47.34 219.37C47.3777 219.36 47.4126 219.342 47.4422 219.317C47.4718 219.291 47.4952 219.26 47.5107 219.224C47.5261 219.188 47.5332 219.15 47.5313 219.111C47.5295 219.072 47.5187 219.034 47.5 219C47.5072 218.995 47.5131 218.988 47.5172 218.98C47.5212 218.972 47.5233 218.964 47.5233 218.955C47.5233 218.946 47.5212 218.937 47.5172 218.929C47.5131 218.922 47.5072 218.915 47.5 218.91C46.0894 217.619 44.3657 216.719 42.5 216.3C41.405 216.08 39.85 216.36 39.675 217.72C39.5 219 40.815 219.655 41.87 219.83ZM40.625 218.63C39.235 216.83 41.915 216.715 42.715 216.91C43.2258 217.042 43.727 217.209 44.215 217.41C45.2257 217.846 46.2137 218.333 47.175 218.87C46.29 218.945 45.42 219.09 44.54 219.2C43.5 219.335 41.395 219.625 40.625 218.63Z" fill="#263238"/>
<path d="M58.5849 108.89C58.5849 108.89 58.1499 117.89 56.0849 124.99C55.9199 125.58 55.7399 126.155 55.5499 126.71C53.6674 127.475 51.8583 128.408 50.1449 129.5C50.1449 129.5 49.9299 136.725 49.7149 144.79C49.4749 153.79 49.2149 163.85 49.2749 165.985C49.4649 173.985 48.2749 217.82 48.2749 217.82L26.1199 217.91C26.1199 217.91 30.1199 168.91 30.1199 166.005C30.0749 161.31 31.1899 140.55 32.0549 125.415C32.5549 116.085 33.0149 108.915 33.0149 108.915L58.5849 108.89Z" fill="#37474F"/>
<path d="M47.5 213.875C44.115 213.82 45.085 213.79 41.705 213.77C40.045 213.77 29.165 213.71 27.62 213.975C27.6107 213.975 27.6018 213.979 27.5952 213.985C27.5886 213.992 27.585 214.001 27.585 214.01C27.585 214.019 27.5886 214.028 27.5952 214.035C27.6018 214.041 27.6107 214.045 27.62 214.045C29.165 214.295 40.05 214.15 41.705 214.13C45.09 214.08 44.115 214.06 47.5 213.975C47.5132 213.975 47.5259 213.97 47.5353 213.96C47.5447 213.951 47.55 213.938 47.55 213.925C47.55 213.912 47.5447 213.899 47.5353 213.89C47.5259 213.88 47.5132 213.875 47.5 213.875Z" fill="#263238"/>
<path d="M34.8599 112.1C34.4499 124.46 34.0199 136.82 33.4649 149.17C32.9099 161.52 32.1649 173.96 31.1299 186.32C30.5499 193.23 29.9999 202.95 29.2549 209.82C29.2549 209.865 29.3199 209.885 29.3299 209.82C30.9399 197.56 31.8299 182.405 32.6349 170.065C33.4399 157.725 33.9649 145.375 34.3849 133.025C34.6249 126.025 34.8049 119.025 35.0149 112.055C34.9999 112 34.8649 112 34.8599 112.1Z" fill="#263238"/>
<path d="M56.5001 126.175C54.2897 127.098 52.1635 128.21 50.1451 129.5C50.1313 129.511 50.1218 129.526 50.1182 129.544C50.1147 129.561 50.1173 129.579 50.1257 129.594C50.134 129.61 50.1475 129.622 50.1639 129.628C50.1802 129.635 50.1983 129.635 50.2151 129.63C52.3501 128.59 54.5301 127.59 56.6101 126.435C56.6364 126.416 56.6556 126.388 56.6643 126.356C56.673 126.325 56.6708 126.291 56.658 126.261C56.6453 126.231 56.6228 126.206 56.5941 126.191C56.5654 126.175 56.5323 126.169 56.5001 126.175Z" fill="#263238"/>
<path d="M56.6048 118.555C56.4548 119.34 56.2648 120.12 56.1048 120.905C55.9448 121.69 55.8298 122.405 55.6348 123.115C55.4735 123.817 55.1163 124.458 54.6048 124.965C54.3198 125.23 53.9998 125.465 53.6948 125.715L53.1948 126.11C53.1948 126.005 53.2398 125.9 53.2548 125.79C53.3098 125.49 53.3598 125.195 53.4098 124.895C53.5198 124.23 53.6248 123.565 53.7298 122.895C53.9298 121.585 54.1098 120.265 54.3848 118.975C54.3848 118.92 54.3148 118.9 54.3048 118.975C53.9798 120.255 53.6198 121.52 53.3348 122.815C53.1948 123.45 52.6998 126.58 52.6798 126.815C52.6598 127.05 52.6348 127.275 52.6298 127.505C52.597 127.737 52.597 127.973 52.6298 128.205C52.6298 128.265 52.7098 128.255 52.7348 128.205C52.8322 127.989 52.8995 127.76 52.9348 127.525C52.9948 127.305 53.0448 127.075 53.0848 126.85C53.0848 126.77 53.0848 126.685 53.1198 126.6C53.4298 126.415 53.7148 126.165 54.0048 125.955C54.2948 125.745 54.6348 125.51 54.9248 125.265C55.4515 124.797 55.8259 124.183 55.9998 123.5C56.1903 122.763 56.3141 122.01 56.3698 121.25C56.4698 120.36 56.5398 119.465 56.6648 118.58C56.6948 118.5 56.6148 118.5 56.6048 118.555Z" fill="#263238"/>
<path d="M48.5001 88.5349C50.2151 93.6999 57.8951 110.12 61.1201 111.27C64.4801 112.46 77.4551 113.945 80.3351 111.68C81.7451 110.565 82.2351 98.6799 80.3351 98.9799C78.4351 99.2799 66.9951 99.6949 65.6351 99.2099C64.2751 98.7249 55.1901 85.4999 51.5001 82.2799C45.1351 76.7549 47.5851 85.7499 48.5001 88.5349Z" fill="#F7A9A0"/>
<path d="M77.4649 98.7799L77.2799 113.575C77.2799 113.575 63.9749 113.61 60.4299 111.745C56.8849 109.88 49.3849 92.785 47.5099 86.245C45.6349 79.705 48.6349 78.695 53.3999 83.495C58.1649 88.295 65.3299 98.3549 66.1799 98.5599C67.0299 98.7649 77.4649 98.7799 77.4649 98.7799Z" fill="#006400"/>
<path d="M59.7099 90.8049C56.9723 91.2641 54.3214 92.141 51.8499 93.4049L51.4 93.6399C51.285 93.6949 51.1749 93.7549 51.0649 93.8199C50.8449 93.9349 50.63 94.0549 50.415 94.1849L50.32 93.9449L50.775 93.6799L51.1049 93.5049C51.3099 93.3899 51.5199 93.2749 51.7299 93.1699C52.9991 92.5115 54.3223 91.9628 55.685 91.5299C56.9462 91.1214 58.2366 90.8089 59.5449 90.5949L59.7099 90.8049ZM62.68 94.5399C62.4441 94.6637 62.2021 94.7755 61.955 94.8749C61.3163 95.1441 60.6431 95.3225 59.955 95.4049C59.605 95.4449 59.2549 95.5049 58.9049 95.5249L57.8499 95.5549C56.4385 95.5167 55.0458 95.2219 53.74 94.6849C52.955 94.3799 52.1899 94.0099 51.4249 93.6399C51.3249 93.5999 51.23 93.5499 51.13 93.5049C50.89 93.3949 50.6299 93.2799 50.4049 93.1749L50.1699 93.0749L49.95 92.9799L50.035 93.1899C50.035 93.2499 50.0849 93.3099 50.1049 93.3699H50.15L50.7949 93.6599L51.0849 93.7999C51.9149 94.1949 52.7499 94.6149 53.6199 94.9549C54.9608 95.5065 56.3907 95.8097 57.84 95.8499L58.9199 95.8249C59.2799 95.8249 59.6399 95.7399 59.9949 95.6999C60.7168 95.6166 61.4236 95.4332 62.095 95.1549C62.3734 95.0453 62.6455 94.9201 62.91 94.7799L62.68 94.5399ZM57.56 88.1699C56.6244 88.6039 55.7145 89.0914 54.8349 89.6299C53.1801 90.6482 51.6115 91.8004 50.145 93.0749L50.0099 93.1899C50.0099 93.2499 50.06 93.3099 50.08 93.3699V93.4099C50.08 93.4099 50.08 93.4099 50.11 93.4099C50.195 93.3349 50.275 93.2599 50.36 93.1949C51.8007 91.9675 53.3372 90.8573 54.955 89.8749C55.8513 89.3388 56.7742 88.8481 57.72 88.4049L57.56 88.1699Z" fill="white"/>
<path d="M73.59 106.085C73.59 104.91 73.675 100.225 73.78 99.085H73.815C73.93 100.215 73.99 104.84 73.985 106.015C74.0236 108.351 73.9351 110.688 73.72 113.015C73.7171 113.023 73.712 113.029 73.7053 113.034C73.6986 113.039 73.6906 113.041 73.6825 113.041C73.6743 113.041 73.6663 113.039 73.6596 113.034C73.6529 113.029 73.6478 113.023 73.645 113.015C73.47 110.71 73.565 108.395 73.59 106.085Z" fill="#263238"/>
<path opacity="0.1" d="M47.5 86.24C49.375 92.785 56.875 109.875 60.42 111.74C62.12 112.635 66.06 113.095 69.705 113.325L48.825 80.5001C47.04 80.3101 46.365 82.245 47.5 86.24Z" fill="black"/>
<path d="M30.6899 122.235C30.7699 122.315 63.2299 120.095 63.4999 119.735C63.8799 119.235 53.6049 86.235 51.0299 81.41C49.9349 79.345 44.6849 79.045 42.6099 81C37.4149 85.885 33.7999 101.68 33.0399 106.415C31.7799 114.225 30.3999 121.95 30.6899 122.235Z" fill="#006400"/>
<path d="M61.765 113.17L60.855 112.635C59.6285 111.92 58.365 111.271 57.07 110.69L56.36 110.38L56.015 110.24C55.0588 109.845 54.0785 109.511 53.08 109.24C51.7155 108.859 50.3173 108.611 48.905 108.5C46.071 108.377 43.2352 108.698 40.5 109.45L40 109.59C39.875 109.62 39.755 109.655 39.635 109.695C37.7293 110.278 35.8774 111.024 34.1 111.925C33.6 112.16 33.1 112.425 32.64 112.67L32.49 112.75L31.94 113.045L31.985 112.79L32.55 112.5C33.11 112.195 33.675 111.9 34.245 111.625C34.715 111.385 35.195 111.16 35.675 110.945C36.8824 110.391 38.1212 109.909 39.385 109.5L39.75 109.395C39.975 109.32 40.2 109.255 40.43 109.195C41.8075 108.808 43.2162 108.542 44.64 108.4C46.0612 108.246 47.4928 108.209 48.92 108.29C51.4304 108.504 53.89 109.121 56.205 110.115L56.545 110.265L57.14 110.53C58.437 111.128 59.7005 111.795 60.925 112.53L61.705 112.99L61.765 113.17ZM60.085 107.67C59.255 108.17 58.445 108.67 57.64 109.2C57.14 109.51 56.685 109.825 56.205 110.13L56.015 110.255C55.36 110.675 54.695 111.08 54.015 111.46C52.7977 112.172 51.4717 112.678 50.09 112.96C49.4 113.092 48.6948 113.128 47.995 113.065C47.645 113.03 47.29 113.02 46.945 112.97L45.905 112.785C44.5317 112.456 43.2292 111.882 42.06 111.09C41.355 110.63 40.685 110.09 40.005 109.59L39.745 109.395C39.535 109.235 39.32 109.075 39.105 108.925L38.9 108.775L38.6 108.57C37.409 107.722 35.9961 107.241 34.535 107.185C33.9586 107.196 33.3891 107.313 32.855 107.53L32.81 107.8C33.3556 107.573 33.9391 107.451 34.53 107.44C35.938 107.508 37.2954 107.986 38.435 108.815L38.61 108.935L38.815 109.08C39.005 109.215 39.195 109.355 39.38 109.5L39.64 109.695C40.375 110.255 41.105 110.835 41.89 111.345C43.0872 112.159 44.4222 112.748 45.83 113.085L46.9 113.28C47.255 113.33 47.615 113.345 47.975 113.38C48.6998 113.442 49.4297 113.407 50.145 113.275C51.555 112.983 52.9067 112.46 54.145 111.725C54.89 111.305 55.615 110.85 56.33 110.38L56.515 110.265L57.775 109.44C58.555 108.94 59.345 108.44 60.145 107.94L60.085 107.67ZM59.535 105.9C58.6666 105.619 57.7836 105.386 56.89 105.2C55.4834 104.915 54.0499 104.785 52.615 104.81C51.1798 104.837 49.7495 104.987 48.34 105.26C46.9315 105.526 45.5457 105.9 44.195 106.38C42.3684 107.036 40.5991 107.842 38.905 108.79C38.805 108.84 38.71 108.895 38.615 108.95C37.905 109.345 37.21 109.755 36.52 110.18C35.755 110.65 34.995 111.135 34.245 111.625C33.66 112 33.08 112.385 32.5 112.765L31.94 113.13C31.94 113.21 31.915 113.285 31.905 113.36C32.645 112.89 33.375 112.41 34.11 111.94C34.61 111.605 35.15 111.27 35.675 110.94C35.99 110.74 36.305 110.545 36.625 110.355C37.345 109.92 38.08 109.495 38.82 109.09L39.11 108.935C40.7697 108.026 42.5004 107.254 44.285 106.625C46.9637 105.671 49.7733 105.135 52.615 105.035C54.0355 105.002 55.4554 105.123 56.85 105.395C57.7813 105.583 58.7011 105.823 59.605 106.115C59.58 106.03 59.555 105.955 59.535 105.885V105.9Z" fill="white"/>
<path d="M38.2499 84.7501C29.6349 94.2501 19.9199 110.305 24.0749 113.75C27.8749 116.88 41.7349 113.9 50.4499 110.495C52.1099 109.845 45.3799 95.1751 43.6899 96.0451C41.9105 96.9923 40.0736 97.8273 38.1899 98.5451C37.6899 98.6751 40.3299 95.4751 43.2499 87.7851C46.1999 79.9301 43.1749 79.3151 38.2499 84.7501Z" fill="#F7A9A0"/>
<path d="M64.865 94.9349C64.865 96.6399 60.67 96.3049 60.67 96.3049C61.2814 96.7032 61.7343 97.3028 61.95 97.9999C62.265 99.2549 60.45 100.305 60.45 100.305C60.9948 100.852 61.3654 101.548 61.515 102.305C61.695 103.535 60.015 104.86 60.015 104.86C60.2372 105.646 60.1698 106.485 59.825 107.225C58.825 109.17 55.465 109.225 53.39 109.645C51.0649 110.183 48.7874 110.908 46.58 111.815L42.72 96.4899C42.72 96.4899 51.72 91.1449 54.22 91.2649C56.33 91.4099 64.855 92.3249 64.865 94.9349Z" fill="#F7A9A0"/>
<path d="M60.6351 96.2551C58.4051 95.6051 56.0251 95.4952 53.7301 95.4102C53.6801 95.4102 53.6751 95.4852 53.7301 95.4902C56.0201 95.5452 58.3451 96.2152 60.6201 96.3652C60.6347 96.3671 60.6494 96.3633 60.6612 96.3543C60.6729 96.3454 60.6806 96.3322 60.6826 96.3176C60.6846 96.3031 60.6807 96.2883 60.6718 96.2766C60.6629 96.2648 60.6497 96.2571 60.6351 96.2551Z" fill="#263238"/>
<path d="M60.375 100.15C59.8544 100.052 59.3231 100.024 58.795 100.065C58.235 100.065 57.675 100.09 57.115 100.115C55.9916 100.165 54.8716 100.245 53.755 100.355C53.705 100.355 53.7 100.435 53.755 100.435C54.875 100.385 55.995 100.35 57.11 100.345H58.79C59.3185 100.389 59.8502 100.372 60.375 100.295C60.3888 100.289 60.4004 100.278 60.4086 100.266C60.4168 100.253 60.4212 100.238 60.4212 100.223C60.4212 100.207 60.4168 100.192 60.4086 100.18C60.4004 100.167 60.3888 100.157 60.375 100.15Z" fill="#263238"/>
<path d="M59.9349 104.905C59.4635 104.822 58.9813 104.822 58.5099 104.905L56.9999 105C55.9999 105.055 54.9549 105.115 53.9299 105.135C53.9193 105.135 53.9091 105.139 53.9016 105.147C53.8941 105.154 53.8899 105.164 53.8899 105.175C53.8899 105.186 53.8941 105.196 53.9016 105.203C53.9091 105.211 53.9193 105.215 53.9299 105.215C54.9699 105.215 56.0099 105.215 57.0499 105.17L58.5799 105.125C59.0461 105.153 59.5135 105.097 59.9599 104.96C59.9672 104.957 59.9729 104.951 59.9757 104.943C59.9785 104.936 59.9782 104.927 59.9749 104.92C59.9716 104.913 59.9655 104.907 59.958 104.904C59.9505 104.901 59.9422 104.902 59.9349 104.905Z" fill="#263238"/>
<path d="M42.285 96.365L45.605 112.865C45.605 112.865 24.97 118.25 22.83 113.03C20.69 107.81 32.83 88.425 39.83 82.895C46.83 77.365 44.2 86.075 43.985 86.775C43.04 89.87 38.64 97.94 38.64 97.94L42.285 96.365Z" fill="#006400"/>
<path d="M45.6051 112.845C45.6051 112.845 24.9701 118.23 22.8301 113.01C21.6801 110.2 24.6601 103.295 28.7451 96.6499L28.8101 96.5449L28.8951 96.4099C28.9201 96.3649 28.9501 96.3199 28.9801 96.2749C30.4554 93.897 32.0508 91.5957 33.7601 89.3799L33.9351 89.1549C35.6568 86.849 37.6307 84.7427 39.8201 82.8749C46.8201 77.3449 44.1901 86.0549 43.9751 86.7549C43.9101 86.9749 43.8251 87.2199 43.7251 87.4849C43.6851 87.5849 43.6451 87.6949 43.6001 87.8049C43.0251 89.2749 42.1001 91.2549 41.1651 93.0749L41.0551 93.2949C41.0551 93.2949 41.0551 93.3449 41.0201 93.3649L40.9601 93.4799C39.7751 95.8149 38.7001 97.7949 38.6351 97.9149L42.2851 96.3649L45.6051 112.845Z" fill="#006400"/>
<path d="M41.165 93.0751L41.055 93.2951C41.055 93.2951 41.055 93.3451 41.02 93.3651L40.77 93.5251L38.735 94.8501C37.5407 95.6366 36.2926 96.3383 35 96.9501C34.3456 97.2518 33.6598 97.4799 32.955 97.6301C32.2416 97.7963 31.4972 97.7739 30.795 97.5651C30.62 97.5151 30.44 97.4751 30.295 97.4201L29.795 97.2051C29.4627 97.0633 29.1417 96.8961 28.835 96.7051L28.76 96.6601L28.825 96.5551L28.91 96.4201C28.9325 96.4416 28.9577 96.4601 28.985 96.4751L29.055 96.5151C29.3245 96.6927 29.6089 96.8466 29.905 96.9751L30.405 97.1851L30.905 97.3301C31.5702 97.5329 32.2768 97.5587 32.955 97.4051C33.6434 97.2621 34.3141 97.0441 34.955 96.7551C36.2388 96.1576 37.4801 95.4727 38.67 94.7051L40.295 93.6651L40.72 93.3901L41.165 93.0751ZM40.665 93.3801C38.1 94.0051 35.585 94.8001 33.025 95.4251C31.685 95.7601 30.325 96.0551 28.96 96.2751C28.93 96.3201 28.9 96.3651 28.875 96.4101L28.79 96.5451L29.02 96.5051C30.385 96.2751 31.74 95.9701 33.08 95.6301C35.485 95.0251 37.845 94.2751 40.24 93.6551L40.74 93.5251C40.8 93.5251 40.865 93.4901 40.93 93.4801L40.99 93.3651C40.99 93.3651 40.99 93.3201 41.025 93.2951L40.665 93.3801ZM40.83 89.2251C40.2077 89.5605 39.5568 89.8399 38.885 90.0601C38.2263 90.2847 37.5289 90.3731 36.835 90.3201C35.7822 90.1721 34.7806 89.7724 33.915 89.1551L33.74 89.3801C34.6505 90.0195 35.702 90.4295 36.805 90.5751C37.5357 90.628 38.2693 90.5293 38.96 90.2851C39.6524 90.0602 40.322 89.7706 40.96 89.4201C41.8686 88.9271 42.7514 88.3881 43.605 87.8051C43.65 87.6951 43.69 87.5851 43.73 87.4851C42.8009 88.1148 41.8396 88.6955 40.85 89.2251H40.83Z" fill="white"/>
<path d="M41.9301 96.3801C39.5601 97.2101 33.3501 100.31 31.9851 101.58C31.9792 101.588 31.976 101.597 31.9758 101.607C31.9757 101.616 31.9786 101.626 31.9842 101.634C31.9898 101.641 31.9978 101.647 32.0069 101.65C32.0161 101.653 32.0259 101.653 32.0351 101.65C33.3751 100.705 41.0351 96.9501 42.2501 96.4901C42.2501 96.4901 42.3101 96.6351 42.3351 96.6751C42.3601 96.7151 42.4051 96.7001 42.4051 96.6451C42.3838 96.51 42.3538 96.3763 42.3151 96.2451L41.9301 96.3801Z" fill="#263238"/>
<path d="M40.1651 105.6C39.9401 104.45 39.0801 99.8401 38.9551 98.6801C38.9551 98.6801 38.9551 98.6551 38.9851 98.6801C39.3251 99.7601 40.3051 104.285 40.5351 105.435C41.0438 107.722 41.426 110.036 41.6801 112.365C41.6801 112.405 41.6201 112.43 41.6051 112.365C41.0001 110.155 40.6051 107.865 40.1651 105.6Z" fill="#263238"/>
<path d="M38.4699 98.0001C39.1149 96.5951 39.9049 95.2601 40.6149 93.8901C41.3249 92.5201 42.0599 91.1601 42.7199 89.7751H42.7499C42.3499 90.7201 41.9499 91.6651 41.5199 92.5951C41.6499 92.4501 41.7699 92.2951 41.8899 92.1401C42.1099 91.8601 42.3099 91.5651 42.5099 91.2701C42.5099 91.2701 42.5449 91.2701 42.5399 91.2701C42.3842 91.601 42.1913 91.913 41.9649 92.2001C41.7975 92.4158 41.6136 92.618 41.4149 92.8051C41.2399 93.1851 41.0549 93.5651 40.8649 93.9401C40.2492 95.3359 39.5288 96.6831 38.7099 97.9701C38.6799 98.0651 38.4449 98.0651 38.4699 98.0001Z" fill="#263238"/>
<path d="M31.62 115.17C34.055 115.14 43.25 113.335 45.525 112.865C45.495 112.625 45.525 112.54 45.465 112.2C45.465 112.155 45.53 112.135 45.54 112.2C45.6 112.525 45.82 113.17 45.73 113.2C44.635 113.63 34.01 115.485 31.62 115.285C31.6124 115.285 31.605 115.284 31.598 115.281C31.591 115.278 31.5847 115.274 31.5793 115.268C31.574 115.263 31.5698 115.257 31.5669 115.25C31.564 115.243 31.5625 115.235 31.5625 115.228C31.5625 115.22 31.564 115.213 31.5669 115.206C31.5698 115.199 31.574 115.192 31.5793 115.187C31.5847 115.182 31.591 115.177 31.598 115.174C31.605 115.172 31.6124 115.17 31.62 115.17Z" fill="#263238"/>
<path d="M56.3799 113.505L73.4999 115.81L79.9949 92.0151L62.8749 89.7151L56.3799 113.505Z" fill="#263238"/>
<path d="M57.2249 113.615L74.3399 115.92L80.8349 92.13L63.7199 89.825L57.2249 113.615Z" fill="#37474F"/>
<path d="M71.4199 102.115C71.313 102.559 71.0469 102.949 70.6719 103.211C70.2969 103.473 69.8391 103.588 69.3849 103.535C69.1707 103.512 68.9638 103.444 68.7784 103.334C68.5931 103.224 68.4335 103.076 68.3106 102.899C68.1877 102.722 68.1044 102.52 68.0663 102.308C68.0283 102.096 68.0363 101.879 68.0899 101.67C68.1968 101.225 68.4627 100.835 68.8376 100.572C69.2124 100.31 69.6703 100.193 70.1249 100.245C70.3397 100.267 70.5471 100.336 70.7329 100.446C70.9187 100.556 71.0786 100.705 71.2016 100.883C71.3245 101.06 71.4077 101.262 71.4454 101.475C71.4831 101.688 71.4744 101.906 71.4199 102.115Z" fill="white"/>
<path d="M80.665 97.0352C81.38 99.0352 83.42 101.64 83.45 103.22C83.4703 103.609 83.3651 103.995 83.15 104.32C82.9349 104.645 82.6211 104.892 82.255 105.025C82.255 105.025 83.755 105.96 83.52 107.395C83.415 108.135 82.135 108.615 82.135 108.615C82.4585 108.844 82.7125 109.158 82.8686 109.523C83.0248 109.887 83.0772 110.288 83.02 110.68C82.81 111.68 81.56 112.015 81.56 112.015C81.56 112.015 82.31 113.3 81.765 114.26C80.655 116.205 71.85 115.31 70.82 111.925C70.32 110.35 72.475 110.685 72.475 110.685C72.475 110.685 69.515 109.46 69.655 107.64C69.795 105.82 72.545 106.42 72.545 106.42C72.545 106.42 69.69 105.21 70.045 103.335C70.4 101.46 73.045 102.46 73.045 102.46C73.045 102.46 71.22 100.96 71.805 99.5602C72.77 97.2852 76.18 100.615 78.16 100.35L79.555 97.2652L80.665 97.0352Z" fill="#F7A9A0"/>
<path d="M82.1499 100C81.6499 98.045 84.2099 95.955 83.9899 94C83.6949 91.375 80.5499 93.6 79.5299 97.26L79.2349 100.26L82.1499 100Z" fill="#F7A9A0"/>
<path d="M81.375 112.095C81.3817 112.095 81.388 112.098 81.3927 112.102C81.3974 112.107 81.4001 112.113 81.4001 112.12C81.4001 112.127 81.3974 112.133 81.3927 112.138C81.388 112.142 81.3817 112.145 81.375 112.145C78.2959 112.578 75.1579 112.067 72.375 110.68C72.285 110.635 72.325 110.47 72.43 110.505C75.3188 111.466 78.332 112.002 81.375 112.095Z" fill="#263238"/>
<path d="M82.175 108.635C82.21 108.635 82.21 108.695 82.175 108.7C78.7698 109.152 75.3153 108.372 72.435 106.5C72.335 106.43 72.315 106.27 72.435 106.34C74.45 107.5 79.315 108.59 82.175 108.635Z" fill="#263238"/>
<path d="M72.8551 102.25C75.6901 104.055 78.8151 104.75 82.1301 105.045C82.1701 105.045 82.1651 105.11 82.1301 105.115C80.4701 105.425 78.3751 105.03 76.7751 104.585C75.277 104.202 73.9061 103.431 72.8001 102.35C72.7501 102.305 72.7951 102.21 72.8551 102.25Z" fill="#263238"/>
<path d="M51.635 82.68C51.695 84.18 51.74 87.585 49.43 87.33C48.5015 87.1456 47.6458 86.6977 46.965 86.04C46.2363 85.4351 45.5772 84.7508 45 84C44.3379 83.1843 43.7426 82.3164 43.22 81.405C43.22 81.37 43.14 81.405 43.165 81.445C43.695 82.36 44.135 83.305 44.755 84.17C45.3404 85.0084 46.0368 85.7636 46.825 86.415C47.5653 87.1027 48.4992 87.5461 49.5 87.685C49.9292 87.7153 50.3557 87.5958 50.7067 87.3469C51.0577 87.098 51.3115 86.7351 51.425 86.32C51.7664 85.1377 51.8382 83.8938 51.635 82.68Z" fill="#263238"/>
<path d="M49.3599 85.8249C47.6899 85.9699 44.9599 82.8249 44.1599 80.6899C44.3697 79.5774 44.635 78.476 44.9549 77.3899C45.2099 76.3349 45.4549 75.1499 45.6349 74.0549L52.2649 76.7299C51.673 78.0446 51.2432 79.4265 50.9849 80.8449C50.9702 80.9962 50.9702 81.1486 50.9849 81.2999C50.9849 81.2999 50.9849 81.3499 50.9849 81.3749C50.9999 82.2499 50.9699 85.6849 49.3599 85.8249Z" fill="#F7A9A0"/>
<path d="M50.9649 81.3C50.9674 81.3249 50.9674 81.3501 50.9649 81.375C50.727 81.3734 50.4897 81.3534 50.2549 81.315C46.2849 80.64 46.0599 75.635 46.0799 74.24L47.7399 74.905L52.2399 76.73C51.6482 78.0443 51.22 79.4263 50.9649 80.845C50.9504 80.9963 50.9504 81.1487 50.9649 81.3Z" fill="#263238"/>
<path d="M44.8751 66.5551C44.1851 69.0551 45.6651 76.1201 47.4551 77.6601C50.0551 79.9001 54.2151 80.0151 56.0951 76.9101C57.9151 73.9101 55.8251 64.7051 53.8301 63.3151C50.8951 61.2601 45.8901 62.8851 44.8751 66.5551Z" fill="#F7A9A0"/>
<path d="M51.8599 71.0251C51.8599 71.0251 51.8299 71.0551 51.8599 71.0751C51.9699 71.5501 52.0199 72.1151 51.6199 72.3601C51.6199 72.3601 51.6199 72.3901 51.6199 72.3851C52.1149 72.2051 52.0449 71.4601 51.8599 71.0251Z" fill="#263238"/>
<path d="M51.3349 70.6151C50.5549 70.7151 50.8349 72.2651 51.5299 72.1751C52.2249 72.0851 51.9999 70.5351 51.3349 70.6151Z" fill="#263238"/>
<path d="M54.575 70.5C54.575 70.5 54.62 70.5 54.62 70.54C54.685 71.04 54.84 71.565 55.3 71.655V71.68C54.755 71.68 54.56 70.96 54.575 70.5Z" fill="#263238"/>
<path d="M54.925 69.9199C55.69 69.7349 56.005 71.2749 55.295 71.4199C54.585 71.5649 54.285 70.0749 54.925 69.9199Z" fill="#263238"/>
<path d="M50.605 70.0001C50.8001 69.9096 50.9889 69.806 51.17 69.6901C51.3797 69.6087 51.5558 69.4589 51.67 69.2651C51.6957 69.1959 51.6979 69.1202 51.6762 69.0497C51.6545 68.9792 51.6101 68.9178 51.55 68.8751C51.419 68.8082 51.2725 68.7776 51.1257 68.7864C50.9788 68.7952 50.8371 68.8431 50.715 68.9251C50.4438 69.0534 50.2299 69.2779 50.115 69.5551C50.0893 69.6219 50.0844 69.6949 50.1009 69.7645C50.1175 69.8342 50.1547 69.8972 50.2076 69.9453C50.2606 69.9934 50.3269 70.0244 50.3978 70.0342C50.4687 70.0439 50.5409 70.0321 50.605 70.0001Z" fill="#263238"/>
<path d="M55.4249 69.445C55.2049 69.445 54.9999 69.405 54.7799 69.385C54.5505 69.3956 54.3239 69.3306 54.1349 69.2C54.0847 69.1464 54.0532 69.078 54.045 69.005C54.0369 68.932 54.0527 68.8583 54.0899 68.795C54.1836 68.682 54.3057 68.596 54.4437 68.5459C54.5817 68.4958 54.7306 68.4834 54.8749 68.51C55.1765 68.5182 55.4639 68.6395 55.6799 68.85C55.7262 68.9004 55.7569 68.963 55.7684 69.0304C55.7799 69.0978 55.7716 69.1671 55.7447 69.2299C55.7178 69.2928 55.6733 69.3465 55.6166 69.3846C55.5598 69.4228 55.4933 69.4438 55.4249 69.445Z" fill="#263238"/>
<path d="M51.9299 75.525C52.0522 75.6478 52.2127 75.7254 52.3849 75.745C52.5643 75.7105 52.7346 75.639 52.8849 75.535C52.8849 75.535 52.9199 75.535 52.8849 75.56C52.8306 75.6654 52.7491 75.7543 52.6489 75.8176C52.5487 75.8809 52.4333 75.9163 52.3149 75.92C52.2132 75.9091 52.117 75.8688 52.0379 75.8039C51.9588 75.7391 51.9004 75.6526 51.8699 75.555C51.8799 75.53 51.9149 75.5 51.9299 75.525Z" fill="#263238"/>
<path d="M52.2 73.89C52.354 74.06 52.5414 74.1966 52.7504 74.2912C52.9594 74.3858 53.1856 74.4365 53.415 74.44C53.6156 74.444 53.8157 74.4204 54.01 74.37L54.12 74.34L54.22 74.305C54.2454 74.2962 54.2671 74.2791 54.2816 74.2564C54.2961 74.2337 54.3026 74.2068 54.3 74.18C54.3029 74.1635 54.3029 74.1466 54.3 74.13V74.09C54.25 73.715 54.12 73.16 54.12 73.16C54.265 73.205 55.01 73.405 54.965 73.21C54.65 71.5483 54.1659 69.9232 53.52 68.36C53.5169 68.3512 53.5112 68.3436 53.5035 68.3382C53.4959 68.3327 53.4868 68.3298 53.4775 68.3298C53.4681 68.3298 53.459 68.3327 53.4514 68.3382C53.4438 68.3436 53.438 68.3512 53.435 68.36C53.715 69.9 54.27 71.36 54.58 72.915C54.3148 72.8409 54.0403 72.8055 53.765 72.81C53.715 72.81 54.035 73.88 54.04 74.05C53.7416 74.1297 53.4304 74.1487 53.1246 74.1057C52.8188 74.0628 52.5248 73.9588 52.26 73.8C52.2 73.815 52.165 73.855 52.2 73.89Z" fill="#263238"/>
<path d="M53.79 74.2799C53.6304 74.5709 53.4 74.8168 53.12 74.9949C52.9688 75.0829 52.7944 75.123 52.62 75.1099C52.225 75.0749 52.16 74.7299 52.18 74.4199C52.1905 74.2499 52.2224 74.0819 52.275 73.9199C52.7296 74.1962 53.2597 74.3222 53.79 74.2799Z" fill="#263238"/>
<path d="M53.12 75.0001C52.9688 75.0881 52.7944 75.1282 52.62 75.1151C52.225 75.0801 52.16 74.7351 52.18 74.4251C52.3782 74.4032 52.5781 74.4478 52.7482 74.5519C52.9184 74.656 53.0491 74.8136 53.12 75.0001Z" fill="#FF9ABB"/>
<path d="M55.1899 65.3799C54.7899 64.8249 54.3499 64.2699 53.9499 64.2249C53.5499 64.1799 53.5049 65.1399 52.6749 65.3799C51.5499 65.6999 50.7749 64.7749 49.1749 65.0049C46.8499 65.3399 46.2549 67.4699 46.8999 70.7249C47.4749 73.6349 45.7849 74.2849 45.7849 74.2849C45.7849 74.2849 43.3449 68.1199 44.6899 65.6149C46.0349 63.1099 49.9699 61.2849 53.1899 62.7099C54.3349 63.2249 55.1899 65.3799 55.1899 65.3799Z" fill="#263238"/>
<path d="M46.9599 72.6701C46.9599 72.6701 45.2449 70.4451 44.2299 71.0651C43.2149 71.6851 44.5699 74.9651 45.8199 75.3651C45.9758 75.4279 46.1428 75.4583 46.3108 75.4546C46.4788 75.4508 46.6443 75.4129 46.7972 75.3432C46.9501 75.2736 47.0872 75.1736 47.2003 75.0492C47.3134 74.9249 47.4 74.779 47.4549 74.6201L46.9599 72.6701Z" fill="#F7A9A0"/>
<path d="M44.6399 72C44.6399 72 44.6399 72 44.6399 72.035C45.0421 72.2138 45.4025 72.4747 45.6979 72.8011C45.9932 73.1274 46.217 73.512 46.3549 73.93C46.3008 73.8462 46.2292 73.7751 46.145 73.7216C46.0608 73.6682 45.966 73.6336 45.8672 73.6203C45.7683 73.607 45.6677 73.6152 45.5724 73.6445C45.4771 73.6738 45.3892 73.7235 45.3149 73.79C45.3149 73.79 45.3149 73.84 45.3399 73.835C45.4889 73.779 45.6516 73.7706 45.8056 73.8109C45.9597 73.8512 46.0974 73.9382 46.1999 74.06C46.3654 74.2675 46.5111 74.4902 46.6349 74.725C46.6749 74.8 46.8149 74.755 46.7799 74.665C46.7449 73.545 45.8249 72.05 44.6399 72Z" fill="#263238"/>
<path d="M50.855 61.83C49.8796 61.5519 48.8692 61.4155 47.855 61.425C46.71 61.46 43.225 62.285 42.49 63.125C41.755 63.965 42.055 67.325 42.11 67.815C42.165 68.305 42.84 71.21 44.02 71.755C45.2 72.3 44.52 67.285 45.935 65.365C47.35 63.445 50.855 61.83 50.855 61.83Z" fill="#006400"/>
<path opacity="0.1" d="M50.8549 61.835C50.8549 61.835 47.3549 63.445 45.9099 65.365C44.4649 67.285 45.1699 72.295 43.9999 71.755C43.7271 71.6045 43.4869 71.4016 43.2929 71.1579C43.099 70.9142 42.9552 70.6345 42.8699 70.335C42.8699 68.835 43.0949 66.485 44.0649 64.725C44.9749 63.08 46.8199 62.025 48.8799 61.46C49.5478 61.5275 50.2087 61.6529 50.8549 61.835Z" fill="black"/>
<path d="M44.75 74.675C44.635 73.33 45.43 69.55 46.53 67.285C47.63 65.02 51.615 63.175 52.2 63.115C53.63 62.975 54.05 63.615 54.255 63.44C54.46 63.265 52.79 61.89 52.35 61.715C51.6936 61.5036 50.9982 61.442 50.315 61.535C49.7 61.645 45.965 62.62 44.84 64.455C43.715 66.29 42.5 71.135 43 72.24C43.13 72.505 43.5 72.625 43.705 73.005C43.945 73.505 44.145 74.08 44.36 74.42C44.575 74.76 44.76 74.79 44.75 74.675Z" fill="#006400"/>
<path d="M46.7099 66.3201C46.363 66.1703 46.0286 65.9931 45.7099 65.7901C45.3748 65.5888 45.0658 65.347 44.7899 65.0701C44.7899 65.0701 44.7349 65.0701 44.7549 65.1001C44.9973 65.4209 45.2893 65.7011 45.6199 65.9301C45.952 66.1522 46.3237 66.3084 46.7149 66.3901C46.7241 66.3894 46.7328 66.3851 46.7389 66.3781C46.745 66.371 46.748 66.3619 46.7474 66.3526C46.7467 66.3433 46.7424 66.3346 46.7353 66.3286C46.7283 66.3225 46.7191 66.3194 46.7099 66.3201Z" fill="#263238"/>
<path d="M44.5299 73.345C44.4749 73.255 44.3999 73.18 44.3399 73.095C44.2691 72.9992 44.2103 72.8951 44.1649 72.785C44.1029 72.5696 44.0174 72.3617 43.9099 72.165C43.7989 72.0191 43.6714 71.8865 43.5299 71.77C43.3603 71.6475 43.237 71.4713 43.1799 71.27H43.1399C43.1999 71.675 43.5149 71.92 43.7449 72.23C43.8618 72.4423 43.9589 72.6649 44.0349 72.895C44.1234 73.105 44.2779 73.2805 44.4749 73.395C44.4999 73.41 44.5449 73.38 44.5299 73.345Z" fill="#263238"/>
<path d="M44.76 71.8349C44.61 71.7049 44.455 71.5899 44.315 71.4449C44.175 71.2999 44.065 71.1449 43.95 70.9899C43.835 70.8349 43.745 70.6699 43.635 70.4899C43.525 70.3099 43.36 70.1349 43.24 69.9399C43.24 69.9399 43.19 69.9399 43.205 69.9699C43.33 70.1649 43.415 70.3899 43.53 70.5899C43.633 70.7634 43.7465 70.9303 43.87 71.0899C43.9866 71.2448 44.1172 71.3888 44.26 71.5199C44.4029 71.6574 44.5733 71.763 44.76 71.8299C44.76 71.8299 44.77 71.8449 44.76 71.8349Z" fill="#263238"/>
<path d="M45.04 70.46C44.723 70.2688 44.4365 70.0311 44.19 69.755C43.95 69.485 43.72 69.2 43.5 68.915C43.5 68.915 43.45 68.915 43.465 68.915C43.6285 69.2536 43.8352 69.5696 44.08 69.855C44.1989 69.9949 44.335 70.1192 44.485 70.225C44.6474 70.333 44.8199 70.4251 45 70.5C45 70.5 45.065 70.5 45.04 70.46Z" fill="#263238"/>
<path d="M45.37 69.1301C45.2169 69.0571 45.0794 68.9553 44.965 68.8301C44.825 68.7001 44.69 68.5651 44.56 68.4251C44.43 68.2901 44.3 68.1651 44.175 68.0301C44.0399 67.9035 43.9326 67.7503 43.86 67.5801C43.86 67.5801 43.815 67.5801 43.82 67.5801C43.8592 67.7625 43.9396 67.9335 44.055 68.0801C44.1664 68.2578 44.2936 68.4251 44.435 68.5801C44.5748 68.7241 44.7234 68.8594 44.88 68.9851C45.0122 69.1059 45.1777 69.1843 45.355 69.2101C45.3602 69.2111 45.3656 69.211 45.3708 69.2099C45.3761 69.2088 45.381 69.2067 45.3855 69.2037C45.3899 69.2006 45.3936 69.1968 45.3966 69.1923C45.3995 69.1878 45.4015 69.1828 45.4025 69.1776C45.4035 69.1723 45.4034 69.1669 45.4023 69.1617C45.4012 69.1565 45.3991 69.1515 45.3961 69.1471C45.393 69.1427 45.3892 69.1389 45.3847 69.136C45.3802 69.1331 45.3752 69.1311 45.37 69.1301Z" fill="#263238"/>
<path d="M45.5 67.5C45.3533 67.4 45.2133 67.295 45.08 67.185C44.95 67.07 44.82 66.955 44.695 66.835C44.57 66.715 44.425 66.585 44.3 66.45C44.3 66.45 44.25 66.45 44.265 66.475C44.3602 66.6324 44.469 66.7813 44.59 66.92C44.7095 67.0553 44.8381 67.1823 44.975 67.3C45.1106 67.4181 45.2543 67.5267 45.405 67.625C45.553 67.7381 45.7235 67.8182 45.905 67.86C45.9091 67.8572 45.9125 67.8535 45.9149 67.8491C45.9172 67.8448 45.9184 67.8399 45.9184 67.835C45.9184 67.83 45.9172 67.8251 45.9149 67.8208C45.9125 67.8164 45.9091 67.8127 45.905 67.81C45.7799 67.6943 45.6443 67.5906 45.5 67.5Z" fill="#263238"/>
<path d="M47.6149 65.4001C47.4549 65.2601 47.2999 65.1201 47.1149 64.9901C46.9299 64.8601 46.7599 64.7451 46.5699 64.6351C46.2111 64.4148 45.8287 64.2354 45.4299 64.1001C45.4299 64.1001 45.3849 64.1251 45.4299 64.1401C46.1399 64.5801 46.8749 64.9901 47.5849 65.4401C47.5902 65.4441 47.5969 65.4458 47.6034 65.4448C47.61 65.4439 47.6159 65.4404 47.6199 65.4351C47.6239 65.4298 47.6256 65.4231 47.6247 65.4166C47.6237 65.41 47.6202 65.4041 47.6149 65.4001Z" fill="#263238"/>
<path d="M48.2401 64.135C48.0856 64.0003 47.9181 63.8814 47.7401 63.7799C47.3455 63.5813 46.9295 63.4286 46.5001 63.325C46.4701 63.325 46.4551 63.355 46.5001 63.365C46.8851 63.54 47.2701 63.7099 47.6401 63.9049C47.8201 64.0049 48.0051 64.105 48.1751 64.22C48.3451 64.335 48.4901 64.4899 48.6751 64.6149C48.5643 64.427 48.4163 64.2636 48.2401 64.135Z" fill="#263238"/>
<path d="M49.265 63.4399C49.1119 63.3021 48.9443 63.1814 48.765 63.0799C48.4378 62.8813 48.0794 62.7393 47.705 62.6599C47.705 62.6599 47.67 62.6949 47.705 62.7049C48.0528 62.841 48.3875 63.0083 48.705 63.2049C48.865 63.3049 49.025 63.4149 49.205 63.5249C49.385 63.6349 49.51 63.7749 49.675 63.8649C49.5522 63.7105 49.4149 63.5682 49.265 63.4399Z" fill="#263238"/>
<path d="M49.96 62.6501C49.805 62.5601 49.64 62.4751 49.46 62.3951C49.3036 62.3073 49.1351 62.2433 48.96 62.2051V62.2501L49.87 62.7851C50.1379 62.9707 50.3859 63.1835 50.61 63.4201C50.61 63.4201 50.64 63.4201 50.61 63.4201C50.4761 63.1036 50.2495 62.8352 49.96 62.6501Z" fill="#263238"/>
<path d="M50.9249 62.28C50.629 62.0813 50.2982 61.9405 49.9499 61.865C49.9249 61.865 49.9149 61.9 49.9499 61.91C50.2756 62.0288 50.5809 62.1975 50.8549 62.41C51.1326 62.6117 51.3874 62.843 51.6149 63.1C51.6149 63.1 51.6499 63.1 51.6399 63.1C51.4719 62.7725 51.2264 62.491 50.9249 62.28Z" fill="#263238"/>
<path d="M53.1399 62.6151C53.0481 62.5232 52.9513 62.4364 52.8499 62.355C52.7485 62.2744 52.6416 62.2009 52.5299 62.135C52.4149 62.065 52.2999 62 52.1899 61.925C52.1899 61.925 52.1399 61.95 52.1899 61.965C52.307 62.033 52.4174 62.1117 52.5199 62.2001L52.8099 62.44L53.1049 62.68C53.1976 62.7699 53.2961 62.8534 53.3999 62.93C53.3256 62.8155 53.2383 62.7098 53.1399 62.6151Z" fill="#263238"/>
<path d="M83.715 53.1551C83.5067 55.1586 82.7455 57.0648 81.5165 58.6607C80.2874 60.2566 78.6389 61.4795 76.7551 62.1927C74.8712 62.9058 72.8262 63.0813 70.8484 62.6994C68.8706 62.3175 67.0379 61.3933 65.555 60.0301L60.115 60.8301L62.835 56.1301C62.2118 54.6009 61.9451 52.9499 62.0553 51.3023C62.1654 49.6547 62.6495 48.0538 63.4708 46.6213C64.292 45.1887 65.4289 43.9621 66.795 43.0345C68.1612 42.1069 69.7207 41.5028 71.3551 41.268C72.9896 41.0331 74.6561 41.1738 76.2282 41.6792C77.8002 42.1846 79.2364 43.0415 80.4278 44.1849C81.6191 45.3283 82.5344 46.7281 83.1039 48.278C83.6735 49.828 83.8825 51.4873 83.715 53.1301V53.1551Z" fill="white"/>
<path d="M83.715 53.155C83.5031 55.1553 82.7436 57.0584 81.52 58.655C80.9218 59.4615 80.2035 60.1714 79.39 60.76C78.5891 61.3694 77.7052 61.861 76.765 62.22C75.827 62.5872 74.8426 62.8228 73.84 62.92C73.3412 62.962 72.8401 62.9721 72.34 62.95C71.8367 62.9338 71.3354 62.8803 70.84 62.79C68.8362 62.4225 66.9746 61.503 65.465 60.135L65.59 60.175L60.145 61L59.75 61.06L59.95 60.715L62.655 56V56.19C62.0152 54.6324 61.7416 52.9488 61.8552 51.2688C61.9687 49.5888 62.4665 47.9573 63.31 46.5C64.1573 45.0505 65.3213 43.8113 66.715 42.875C68.4497 41.7319 70.4726 41.1034 72.5496 41.0622C74.6267 41.021 76.6729 41.5689 78.4515 42.6423C80.2301 43.7158 81.6684 45.271 82.5999 47.1279C83.5314 48.9848 83.918 51.0675 83.715 53.135V53.155ZM83.715 53.155C83.8886 51.5181 83.6841 49.8632 83.1174 48.3178C82.5507 46.7724 81.6368 45.3777 80.4461 44.2411C79.2555 43.1046 77.8198 42.2565 76.2497 41.7622C74.6796 41.2678 73.017 41.1405 71.39 41.39C69.7744 41.6314 68.2353 42.2385 66.89 43.165C65.5608 44.0988 64.4502 45.31 63.635 46.715C62.8355 48.1235 62.3638 49.6941 62.255 51.31C62.1567 52.9271 62.418 54.5459 63.02 56.05L63.06 56.145L63.01 56.235L60.27 60.925L60.08 60.64L65.52 59.875H65.595L65.65 59.925C67.102 61.285 68.9045 62.2132 70.855 62.605C71.3492 62.7063 71.8509 62.7665 72.355 62.785C72.8544 62.8208 73.3556 62.8208 73.855 62.785C74.8484 62.7078 75.8261 62.4924 76.76 62.145C77.6987 61.8058 78.5816 61.3289 79.38 60.73C79.7834 60.4366 80.1675 60.1176 80.53 59.775C80.8857 59.4205 81.2197 59.0448 81.53 58.65C82.7496 57.054 83.5057 55.1527 83.715 53.155Z" fill="#263238"/>
<path d="M71.63 58.225L66.99 53.525L68.55 51.985L71.26 54.73L76.895 45.895L78.745 47.075L71.63 58.225Z" fill="#006400"/>
</svg>
