<svg width="24" height="16" viewBox="0 0 24 16" fill="none" xmlns="http://www.w3.org/2000/svg">
<g clip-path="url(#clip0_165_11894)">
<mask id="mask0_165_11894" style="mask-type:luminance" maskUnits="userSpaceOnUse" x="0" y="0" width="24" height="16">
<path d="M0 0H24V16H0V0Z" fill="white"/>
</mask>
<g mask="url(#mask0_165_11894)">
<path d="M0 0H24V16H0V0Z" fill="white"/>
<path fill-rule="evenodd" clip-rule="evenodd" d="M0 0V16H24V0H0Z" fill="#2E42A5"/>
<mask id="mask1_165_11894" style="mask-type:luminance" maskUnits="userSpaceOnUse" x="0" y="0" width="24" height="16">
<path fill-rule="evenodd" clip-rule="evenodd" d="M0 0V16H24V0H0Z" fill="white"/>
</mask>
<g mask="url(#mask1_165_11894)">
<path d="M-2.67224 14.8567L2.60926 16.8427L24.1193 2.15867L26.9055 -0.792L21.258 -1.45533L12.4845 4.872L5.42251 9.136L-2.67224 14.8567Z" fill="white"/>
<path d="M-1.95001 16.248L0.741738 17.4L25.905 -1.066H22.1272L-1.94926 16.2473L-1.95001 16.248Z" fill="#F50100"/>
<path d="M26.6722 14.8567L21.3907 16.8427L-0.119267 2.15867L-2.90552 -0.792L2.74198 -1.45533L11.5155 4.872L18.5775 9.136L26.6722 14.8567Z" fill="white"/>
<path d="M26.4922 15.8553L23.8012 17.0073L13.0867 9.10067L9.90974 8.218L-3.17401 -0.782001H0.604489L13.68 8.00467L17.1532 9.06333L26.4922 15.8553Z" fill="#F50100"/>
<path fill-rule="evenodd" clip-rule="evenodd" d="M14.8335 -1.33333H9.1665V5.33333H-1.479V10.6667H9.1665V17.3333H14.8335V10.6667H25.521V5.33333H14.8335V-1.33333Z" fill="#F50100"/>
<mask id="mask2_165_11894" style="mask-type:luminance" maskUnits="userSpaceOnUse" x="-2" y="-2" width="28" height="20">
<path fill-rule="evenodd" clip-rule="evenodd" d="M14.8335 -1.33333H9.1665V5.33333H-1.479V10.6667H9.1665V17.3333H14.8335V10.6667H25.521V5.33333H14.8335V-1.33333Z" fill="white"/>
</mask>
<g mask="url(#mask2_165_11894)">
<path d="M9.1665 -1.33333V-2.66666H7.6665V-1.33333H9.1665ZM14.8335 -1.33333H16.3335V-2.66666H14.8335V-1.33333ZM9.1665 5.33334V6.66667H10.6665V5.33334H9.1665ZM-1.479 5.33334V4H-2.979V5.33334H-1.479ZM-1.479 10.6667H-2.979V12H-1.479V10.6667ZM9.1665 10.6667H10.6665V9.33334H9.1665V10.6667ZM9.1665 17.3333H7.6665V18.6667H9.1665V17.3333ZM14.8335 17.3333V18.6667H16.3335V17.3333H14.8335ZM14.8335 10.6667V9.33334H13.3335V10.6667H14.8335ZM25.521 10.6667V12H27.021V10.6667H25.521ZM25.521 5.33334H27.021V4H25.521V5.33334ZM14.8335 5.33334H13.3335V6.66667H14.8335V5.33334ZM9.1665 2.6226e-06H14.8335V-2.66666H9.1665V2.6226e-06ZM10.6665 5.33334V-1.33333H7.6665V5.33334H10.6665ZM-1.479 6.66667H9.1665V4H-1.479V6.66667ZM0.0209961 10.6667V5.33334H-2.979V10.6667H0.0209961ZM9.1665 9.33334H-1.479V12H9.1665V9.33334ZM10.6665 17.3333V10.6667H7.6665V17.3333H10.6665ZM14.8335 16H9.1665V18.6667H14.8335V16ZM13.3335 10.6667V17.3333H16.3335V10.6667H13.3335ZM25.521 9.33334H14.8335V12H25.521V9.33334ZM24.021 5.33334V10.6667H27.021V5.33334H24.021ZM14.8335 6.66667H25.521V4H14.8335V6.66667ZM13.3335 -1.33333V5.33334H16.3335V-1.33333H13.3335Z" fill="white"/>
</g>
</g>
</g>
</g>
<defs>
<clipPath id="clip0_165_11894">
<rect width="24" height="16" fill="white"/>
</clipPath>
</defs>
</svg>
