<svg width="197" height="111" viewBox="0 0 197 111" fill="none" xmlns="http://www.w3.org/2000/svg">
<rect x="79" y="0.5" width="39" height="39" rx="19.5" fill="white"/>
<rect x="79" y="0.5" width="39" height="39" rx="19.5" stroke="#E4E7EC"/>
<path d="M99.3333 14.1667C99.3333 13.7064 98.9602 13.3333 98.5 13.3333C98.0398 13.3333 97.6667 13.7064 97.6667 14.1667V23.3333C97.6667 23.7936 98.0398 24.1667 98.5 24.1667C98.9602 24.1667 99.3333 23.7936 99.3333 23.3333V14.1667Z" fill="black"/>
<path fill-rule="evenodd" clip-rule="evenodd" d="M98.5 10.8333C96.8215 10.8333 95.4608 12.194 95.4608 13.8726V19.9307C94.2649 20.8743 93.5 22.3586 93.5 24.0188C93.5 26.8343 95.7114 29.1667 98.5 29.1667C101.289 29.1667 103.5 26.8343 103.5 24.0188C103.5 22.3586 102.735 20.8743 101.539 19.9307V13.8726C101.539 12.194 100.179 10.8333 98.5 10.8333ZM95.1667 24.0188C95.1667 22.8501 95.7165 21.8241 96.5509 21.1945C96.8821 20.9447 97.1275 20.5381 97.1275 20.0586V13.8726C97.1275 13.1145 97.742 12.5 98.5 12.5C99.258 12.5 99.8725 13.1145 99.8725 13.8726V20.0586C99.8725 20.5381 100.118 20.9447 100.449 21.1945C101.284 21.8241 101.833 22.8501 101.833 24.0188C101.833 25.969 100.314 27.5 98.5 27.5C96.6862 27.5 95.1667 25.969 95.1667 24.0188Z" fill="black"/>
<path d="M98.5 40V72.0478" stroke="black"/>
<rect x="0.5" y="72.5478" width="196" height="37" rx="18.5" stroke="#D2D2D2"/>
<path d="M82.3516 85.5713H83.9062V95.6806H89.7188V97.0478H82.3516V85.5713ZM91.0703 88.7197H92.5V97.0478H91.0703V88.7197ZM91.0703 85.5713H92.5V87.165H91.0703V85.5713ZM97.5859 88.5322C98.2422 88.5322 98.8151 88.6937 99.3047 89.0166C99.5703 89.1989 99.8411 89.4645 100.117 89.8134V88.7588H101.414V96.3681C101.414 97.4306 101.258 98.2692 100.945 98.8838C100.362 100.019 99.2604 100.587 97.6406 100.587C96.7396 100.587 95.9818 100.384 95.3672 99.9775C94.7526 99.5765 94.4089 98.9463 94.3359 98.0869H95.7656C95.8333 98.4619 95.9688 98.7509 96.1719 98.9541C96.4896 99.2666 96.9896 99.4228 97.6719 99.4228C98.75 99.4228 99.4557 99.0426 99.7891 98.2822C99.987 97.8343 100.078 97.0348 100.062 95.8838C99.7812 96.3108 99.4427 96.6286 99.0469 96.8369C98.651 97.0452 98.1276 97.1494 97.4766 97.1494C96.5703 97.1494 95.776 96.8291 95.0938 96.1884C94.4167 95.5426 94.0781 94.4775 94.0781 92.9931C94.0781 91.5921 94.4193 90.4983 95.1016 89.7119C95.7891 88.9254 96.6172 88.5322 97.5859 88.5322ZM100.117 92.8291C100.117 91.7926 99.9036 91.0244 99.4766 90.5244C99.0495 90.0244 98.5052 89.7744 97.8438 89.7744C96.8542 89.7744 96.1771 90.2379 95.8125 91.165C95.6198 91.6598 95.5234 92.3082 95.5234 93.1103C95.5234 94.053 95.7135 94.7718 96.0938 95.2666C96.4792 95.7562 96.9948 96.0009 97.6406 96.0009C98.651 96.0009 99.362 95.5452 99.7734 94.6338C100.003 94.1181 100.117 93.5166 100.117 92.8291ZM103.539 85.5322H104.945V89.8134C105.279 89.3916 105.578 89.0947 105.844 88.9228C106.297 88.6259 106.862 88.4775 107.539 88.4775C108.753 88.4775 109.576 88.902 110.008 89.7509C110.242 90.2145 110.359 90.8577 110.359 91.6806V97.0478H108.914V91.7744C108.914 91.1598 108.836 90.7093 108.68 90.4228C108.424 89.9645 107.945 89.7353 107.242 89.7353C106.659 89.7353 106.13 89.9358 105.656 90.3369C105.182 90.7379 104.945 91.4957 104.945 92.6103V97.0478H103.539V85.5322ZM112.727 86.3447H114.148V88.6806H115.484V89.8291H114.148V95.29C114.148 95.5817 114.247 95.777 114.445 95.8759C114.555 95.9332 114.737 95.9619 114.992 95.9619C115.06 95.9619 115.133 95.9619 115.211 95.9619C115.289 95.9567 115.38 95.9489 115.484 95.9384V97.0478C115.323 97.0947 115.154 97.1286 114.977 97.1494C114.805 97.1702 114.617 97.1806 114.414 97.1806C113.758 97.1806 113.312 97.014 113.078 96.6806C112.844 96.3421 112.727 95.9046 112.727 95.3681V89.8291H111.594V88.6806H112.727V86.3447Z" fill="black"/>
</svg>
