<svg width="197" height="40" viewBox="0 0 197 40" fill="none" xmlns="http://www.w3.org/2000/svg">
<rect x="0.5" y="1.5" width="117.5" height="37" rx="18.5" stroke="#D2D2D2"/>
<path d="M40.1719 14.5234L42.3359 23.8594L44.9297 14.5234H46.6172L49.2109 23.8594L51.375 14.5234H53.0781L50.0625 26H48.4297L45.7812 16.4844L43.1172 26H41.4844L38.4844 14.5234H40.1719ZM54.8203 23.7734C54.8203 24.1797 54.9688 24.5 55.2656 24.7344C55.5625 24.9688 55.9141 25.0859 56.3203 25.0859C56.8151 25.0859 57.2943 24.9714 57.7578 24.7422C58.5391 24.362 58.9297 23.7396 58.9297 22.875V21.7422C58.7578 21.8516 58.5365 21.9427 58.2656 22.0156C57.9948 22.0885 57.7292 22.1406 57.4688 22.1719L56.6172 22.2812C56.1068 22.349 55.724 22.4557 55.4688 22.6016C55.0365 22.8464 54.8203 23.237 54.8203 23.7734ZM58.2266 20.9297C58.5495 20.888 58.7656 20.7526 58.875 20.5234C58.9375 20.3984 58.9688 20.2188 58.9688 19.9844C58.9688 19.5052 58.7969 19.1589 58.4531 18.9453C58.1146 18.7266 57.6276 18.6172 56.9922 18.6172C56.2578 18.6172 55.737 18.8151 55.4297 19.2109C55.2578 19.4297 55.1458 19.7552 55.0938 20.1875H53.7812C53.8073 19.1562 54.1406 18.4401 54.7812 18.0391C55.4271 17.6328 56.1745 17.4297 57.0234 17.4297C58.0078 17.4297 58.8073 17.6172 59.4219 17.9922C60.0312 18.3672 60.3359 18.9505 60.3359 19.7422V24.5625C60.3359 24.7083 60.3646 24.8255 60.4219 24.9141C60.4844 25.0026 60.612 25.0469 60.8047 25.0469C60.8672 25.0469 60.9375 25.0443 61.0156 25.0391C61.0938 25.0286 61.1771 25.0156 61.2656 25V26.0391C61.0469 26.1016 60.8802 26.1406 60.7656 26.1562C60.651 26.1719 60.4948 26.1797 60.2969 26.1797C59.8125 26.1797 59.4609 26.0078 59.2422 25.6641C59.1276 25.4818 59.0469 25.224 59 24.8906C58.7135 25.2656 58.3021 25.5911 57.7656 25.8672C57.2292 26.1432 56.638 26.2812 55.9922 26.2812C55.2161 26.2812 54.5807 26.0469 54.0859 25.5781C53.5964 25.1042 53.3516 24.513 53.3516 23.8047C53.3516 23.0286 53.5938 22.4271 54.0781 22C54.5625 21.5729 55.1979 21.3099 55.9844 21.2109L58.2266 20.9297ZM62.9297 15.2969H64.3516V17.6328H65.6875V18.7812H64.3516V24.2422C64.3516 24.5339 64.4505 24.7292 64.6484 24.8281C64.7578 24.8854 64.9401 24.9141 65.1953 24.9141C65.263 24.9141 65.3359 24.9141 65.4141 24.9141C65.4922 24.9089 65.5833 24.901 65.6875 24.8906V26C65.526 26.0469 65.3568 26.0807 65.1797 26.1016C65.0078 26.1224 64.8203 26.1328 64.6172 26.1328C63.9609 26.1328 63.5156 25.9661 63.2812 25.6328C63.0469 25.2943 62.9297 24.8568 62.9297 24.3203V18.7812H61.7969V17.6328H62.9297V15.2969ZM70.5859 17.4453C71.1797 17.4453 71.7552 17.5859 72.3125 17.8672C72.8698 18.1432 73.2943 18.5026 73.5859 18.9453C73.8672 19.3672 74.0547 19.8594 74.1484 20.4219C74.2318 20.8073 74.2734 21.4219 74.2734 22.2656H68.1406C68.1667 23.1146 68.3672 23.7969 68.7422 24.3125C69.1172 24.8229 69.6979 25.0781 70.4844 25.0781C71.2188 25.0781 71.8047 24.8359 72.2422 24.3516C72.4922 24.0703 72.6693 23.7448 72.7734 23.375H74.1562C74.1198 23.6823 73.9974 24.026 73.7891 24.4062C73.5859 24.7812 73.3568 25.0885 73.1016 25.3281C72.6745 25.7448 72.1458 26.026 71.5156 26.1719C71.1771 26.2552 70.7943 26.2969 70.3672 26.2969C69.3255 26.2969 68.4427 25.9193 67.7188 25.1641C66.9948 24.4036 66.6328 23.3411 66.6328 21.9766C66.6328 20.6328 66.9974 19.5417 67.7266 18.7031C68.4557 17.8646 69.4089 17.4453 70.5859 17.4453ZM72.8281 21.1484C72.7708 20.5391 72.638 20.0521 72.4297 19.6875C72.0443 19.0104 71.401 18.6719 70.5 18.6719C69.8542 18.6719 69.3125 18.9062 68.875 19.375C68.4375 19.8385 68.2057 20.4297 68.1797 21.1484H72.8281ZM76.0469 17.6328H77.3828V19.0781C77.4922 18.7969 77.7604 18.4557 78.1875 18.0547C78.6146 17.6484 79.1068 17.4453 79.6641 17.4453C79.6901 17.4453 79.7344 17.4479 79.7969 17.4531C79.8594 17.4583 79.9661 17.4688 80.1172 17.4844V18.9688C80.0339 18.9531 79.9557 18.9427 79.8828 18.9375C79.8151 18.9323 79.7396 18.9297 79.6562 18.9297C78.9479 18.9297 78.4036 19.1589 78.0234 19.6172C77.6432 20.0703 77.4531 20.5938 77.4531 21.1875V26H76.0469V17.6328Z" fill="black"/>
<path d="M118.5 20H157" stroke="black"/>
<rect x="157.5" y="0.5" width="39" height="39" rx="19.5" fill="white"/>
<rect x="157.5" y="0.5" width="39" height="39" rx="19.5" stroke="#E4E7EC"/>
<path d="M177.833 14.1666C177.833 13.7064 177.46 13.3333 177 13.3333C176.54 13.3333 176.167 13.7064 176.167 14.1666V23.3333C176.167 23.7935 176.54 24.1666 177 24.1666C177.46 24.1666 177.833 23.7935 177.833 23.3333V14.1666Z" fill="black"/>
<path fill-rule="evenodd" clip-rule="evenodd" d="M177 10.8333C175.321 10.8333 173.961 12.194 173.961 13.8725V19.9306C172.765 20.8742 172 22.3586 172 24.0188C172 26.8342 174.211 29.1666 177 29.1666C179.789 29.1666 182 26.8342 182 24.0188C182 22.3586 181.235 20.8742 180.039 19.9306V13.8725C180.039 12.194 178.679 10.8333 177 10.8333ZM173.667 24.0188C173.667 22.8501 174.216 21.824 175.051 21.1945C175.382 20.9447 175.627 20.5381 175.627 20.0586V13.8725C175.627 13.1145 176.242 12.5 177 12.5C177.758 12.5 178.373 13.1145 178.373 13.8725V20.0586C178.373 20.5381 178.618 20.9447 178.949 21.1945C179.784 21.824 180.333 22.8501 180.333 24.0188C180.333 25.969 178.814 27.5 177 27.5C175.186 27.5 173.667 25.969 173.667 24.0188Z" fill="black"/>
</svg>
