<svg width="24" height="24" viewBox="0 0 24 24" fill="none" xmlns="http://www.w3.org/2000/svg">
<path fill-rule="evenodd" clip-rule="evenodd" d="M13.6982 2.10471L12.5 3.194L11.3018 2.10471C9.42732 0.400657 6.80698 1.93146 6.73078 4.00001H4C2.34315 4.00001 1 5.34315 1 7.00001V8.8889C1 9.69302 1.44959 10.3921 2.11111 10.7486V19C2.11111 21.2091 3.90197 23 6.11111 23H17.8889C20.098 23 21.8889 21.2091 21.8889 19V10.7486C22.5504 10.3921 23 9.69302 23 8.8889V7.00001C23 5.34315 21.6569 4.00001 20 4.00001H18.2692C18.193 1.93146 15.5727 0.400657 13.6982 2.10471ZM8.01833 6.00001C8.00673 6.00021 7.99514 6.00021 7.98356 6.00001H4C3.44772 6.00001 3 6.44772 3 7.00001V8.8889C3 8.95026 3.04975 9.00001 3.11111 9.00001H20.8889C20.9503 9.00001 21 8.95026 21 8.8889V7.00001C21 6.44772 20.5523 6.00001 20 6.00001H17.0164C17.0049 6.00021 16.9933 6.00021 16.9817 6.00001H8.01833ZM13.5 11H10.5V13.6876C10.5 13.722 10.5084 13.7382 10.5147 13.7478C10.5234 13.761 10.5393 13.7765 10.5631 13.788C10.587 13.7994 10.6091 13.8022 10.6248 13.8007C10.6363 13.7997 10.6542 13.7961 10.681 13.7746C11.4521 13.1577 12.5479 13.1577 13.319 13.7746C13.3458 13.7961 13.3637 13.7997 13.3752 13.8007C13.3909 13.8022 13.413 13.7994 13.4368 13.788C13.4607 13.7765 13.4766 13.761 13.4853 13.7478C13.4916 13.7382 13.5 13.722 13.5 13.6876V11ZM8.5 11V13.6876C8.5 15.458 10.5479 16.4423 11.9304 15.3363C11.9711 15.3038 12.0289 15.3038 12.0696 15.3363C13.4521 16.4423 15.5 15.458 15.5 13.6876V11H19.8889V19C19.8889 20.1046 18.9935 21 17.8889 21H6.11111C5.00654 21 4.11111 20.1046 4.11111 19V11H8.5ZM9.95644 3.58459L10.4134 4.00001H8.75741C8.84147 3.49846 9.48734 3.15814 9.95644 3.58459ZM16.2426 4.00001C16.1585 3.49846 15.5127 3.15814 15.0436 3.58459L14.5866 4.00001H16.2426Z" fill="#121212"/>
</svg>
